<svg width="93" height="13" viewBox="0 0 93 13" fill="none" xmlns="http://www.w3.org/2000/svg">
<path d="M4.82 3.405L0.605 5.88L4.82 8.37V8.865L0.125 6.09V5.655L4.82 2.91V3.405ZM50.8626 12.3C49.8126 12.3 48.8376 12.025 47.9376 11.475C47.0376 10.925 46.3226 10.195 45.7926 9.285C45.2726 8.365 45.0126 7.38 45.0126 6.33C45.0126 5.29 45.2776 4.32 45.8076 3.42C46.3376 2.51 47.0526 1.79 47.9526 1.26C48.8526 0.719999 49.8276 0.449999 50.8776 0.449999C51.9376 0.449999 52.9126 0.715 53.8026 1.245C54.6926 1.775 55.3976 2.495 55.9176 3.405C56.4476 4.305 56.7126 5.28 56.7126 6.33C56.7126 7.41 56.4476 8.41 55.9176 9.33C55.3976 10.24 54.6876 10.965 53.7876 11.505C52.8976 12.035 51.9226 12.3 50.8626 12.3ZM50.8626 11.865C51.8226 11.865 52.7126 11.62 53.5326 11.13C54.3526 10.63 55.0026 9.96 55.4826 9.12C55.9726 8.27 56.2176 7.35 56.2176 6.36C56.2176 5.38 55.9776 4.47 55.4976 3.63C55.0176 2.79 54.3676 2.125 53.5476 1.635C52.7276 1.135 51.8376 0.884999 50.8776 0.884999C49.9076 0.884999 49.0126 1.135 48.1926 1.635C47.3726 2.125 46.7176 2.79 46.2276 3.63C45.7476 4.47 45.5076 5.38 45.5076 6.36C45.5076 7.35 45.7476 8.27 46.2276 9.12C46.7176 9.96 47.3726 10.63 48.1926 11.13C49.0126 11.62 49.9026 11.865 50.8626 11.865ZM60.928 12.135C60.458 12.135 60.028 12.03 59.638 11.82C59.248 11.6 58.938 11.295 58.708 10.905C58.478 10.515 58.363 10.08 58.363 9.6V0.749999H58.843V9.6C58.843 10 58.933 10.36 59.113 10.68C59.303 11 59.558 11.255 59.878 11.445C60.198 11.625 60.548 11.715 60.928 11.715V12.135ZM63.0642 3.705C62.9242 3.705 62.7992 3.655 62.6892 3.555C62.5892 3.455 62.5392 3.33 62.5392 3.18C62.5392 3.04 62.5892 2.92 62.6892 2.82C62.7992 2.72 62.9242 2.67 63.0642 2.67C63.2042 2.67 63.3242 2.72 63.4242 2.82C63.5342 2.92 63.5892 3.04 63.5892 3.18C63.5892 3.33 63.5342 3.455 63.4242 3.555C63.3242 3.655 63.2042 3.705 63.0642 3.705ZM62.8242 5.25H63.3042V12H62.8242V5.25ZM71.3157 5.25L68.0007 12.195L64.6707 5.25H65.1957L68.0007 11.1L70.7907 5.25H71.3157ZM75.3296 11.76C75.8496 11.76 76.3446 11.625 76.8146 11.355C77.2846 11.085 77.6746 10.715 77.9846 10.245V11.01C77.6146 11.42 77.2096 11.72 76.7696 11.91C76.3296 12.09 75.8296 12.18 75.2696 12.18C74.6496 12.18 74.0646 12.015 73.5146 11.685C72.9746 11.355 72.5396 10.915 72.2096 10.365C71.8896 9.815 71.7296 9.23 71.7296 8.61C71.7296 7.94 71.8896 7.34 72.2096 6.81C72.5296 6.27 72.9646 5.85 73.5146 5.55C74.0746 5.25 74.6946 5.1 75.3746 5.1C76.4146 5.1 77.2996 5.51 78.0296 6.33L73.3196 10.98C73.6496 11.25 73.9696 11.45 74.2796 11.58C74.5896 11.7 74.9396 11.76 75.3296 11.76ZM72.2096 8.565C72.2096 9.395 72.4846 10.105 73.0346 10.695L77.4296 6.33C77.0996 6.04 76.7796 5.835 76.4696 5.715C76.1596 5.585 75.7896 5.52 75.3596 5.52C74.7496 5.52 74.2046 5.655 73.7246 5.925C73.2546 6.185 72.8846 6.545 72.6146 7.005C72.3446 7.465 72.2096 7.985 72.2096 8.565ZM79.53 5.25H80.01V6.81C80.21 6.32 80.5 5.935 80.88 5.655C81.27 5.375 81.71 5.235 82.2 5.235C82.51 5.235 82.825 5.3 83.145 5.43V5.985C82.855 5.765 82.53 5.655 82.17 5.655C81.81 5.655 81.46 5.765 81.12 5.985C80.79 6.205 80.52 6.5 80.31 6.87C80.11 7.24 80.01 7.635 80.01 8.055V12H79.53V5.25ZM92.5055 5.655V6.09L87.8105 8.865V8.37L92.0255 5.88L87.8105 3.405V2.91L92.5055 5.655Z" fill="#F2E5BD"/>
<path d="M9.60395 0.749999H10.0989V11.565H13.5789V12H9.60395V0.749999ZM18.1275 11.76C18.6475 11.76 19.1425 11.625 19.6125 11.355C20.0825 11.085 20.4725 10.715 20.7825 10.245V11.01C20.4125 11.42 20.0075 11.72 19.5675 11.91C19.1275 12.09 18.6275 12.18 18.0675 12.18C17.4475 12.18 16.8625 12.015 16.3125 11.685C15.7725 11.355 15.3375 10.915 15.0075 10.365C14.6875 9.815 14.5275 9.23 14.5275 8.61C14.5275 7.94 14.6875 7.34 15.0075 6.81C15.3275 6.27 15.7625 5.85 16.3125 5.55C16.8725 5.25 17.4925 5.1 18.1725 5.1C19.2125 5.1 20.0975 5.51 20.8275 6.33L16.1175 10.98C16.4475 11.25 16.7675 11.45 17.0775 11.58C17.3875 11.7 17.7375 11.76 18.1275 11.76ZM15.0075 8.565C15.0075 9.395 15.2825 10.105 15.8325 10.695L20.2275 6.33C19.8975 6.04 19.5775 5.835 19.2675 5.715C18.9575 5.585 18.5875 5.52 18.1575 5.52C17.5475 5.52 17.0025 5.655 16.5225 5.925C16.0525 6.185 15.6825 6.545 15.4125 7.005C15.1425 7.465 15.0075 7.985 15.0075 8.565ZM19.4775 2.34H20.0925L18.0075 4.065H17.3775L19.4775 2.34ZM22.9128 3.705C22.7728 3.705 22.6478 3.655 22.5378 3.555C22.4378 3.455 22.3878 3.33 22.3878 3.18C22.3878 3.04 22.4378 2.92 22.5378 2.82C22.6478 2.72 22.7728 2.67 22.9128 2.67C23.0528 2.67 23.1728 2.72 23.2728 2.82C23.3828 2.92 23.4378 3.04 23.4378 3.18C23.4378 3.33 23.3828 3.455 23.2728 3.555C23.1728 3.655 23.0528 3.705 22.9128 3.705ZM22.6728 5.25H23.1528V12H22.6728V5.25ZM28.5693 12.165C27.9293 12.165 27.3343 12.005 26.7843 11.685C26.2343 11.365 25.7993 10.935 25.4793 10.395C25.1593 9.845 24.9993 9.255 24.9993 8.625C24.9993 7.995 25.1593 7.41 25.4793 6.87C25.7993 6.32 26.2343 5.885 26.7843 5.565C27.3343 5.245 27.9293 5.085 28.5693 5.085C29.2193 5.085 29.8343 5.26 30.4143 5.61C30.9943 5.95 31.3993 6.395 31.6293 6.945V5.25H32.1093V12H31.6293V10.32C31.3593 10.88 30.9393 11.33 30.3693 11.67C29.8093 12 29.2093 12.165 28.5693 12.165ZM28.5993 11.745C29.1493 11.745 29.6593 11.605 30.1293 11.325C30.5993 11.035 30.9693 10.655 31.2393 10.185C31.5193 9.705 31.6593 9.185 31.6593 8.625C31.6593 8.075 31.5193 7.56 31.2393 7.08C30.9593 6.6 30.5843 6.22 30.1143 5.94C29.6443 5.65 29.1343 5.505 28.5843 5.505C28.0343 5.505 27.5193 5.65 27.0393 5.94C26.5693 6.23 26.1893 6.615 25.8993 7.095C25.6193 7.575 25.4793 8.09 25.4793 8.64C25.4793 9.19 25.6193 9.705 25.8993 10.185C26.1893 10.655 26.5743 11.035 27.0543 11.325C27.5343 11.605 28.0493 11.745 28.5993 11.745ZM34.0026 0.749999H34.4826V6.645C34.6926 6.195 35.0476 5.825 35.5476 5.535C36.0576 5.235 36.5726 5.085 37.0926 5.085C38.0426 5.085 38.7726 5.345 39.2826 5.865C39.8026 6.385 40.0626 7.12 40.0626 8.07V12H39.5826V8.07C39.5826 7.25 39.3626 6.62 38.9226 6.18C38.4926 5.73 37.8826 5.505 37.0926 5.505C36.6126 5.505 36.1726 5.62 35.7726 5.85C35.3726 6.07 35.0576 6.38 34.8276 6.78C34.5976 7.17 34.4826 7.6 34.4826 8.07V12H34.0026V0.749999Z" fill="#D9644A"/>
</svg>
