<svg width="20" height="20" viewBox="0 0 20 20" fill="none" xmlns="http://www.w3.org/2000/svg">
<path d="M19.2857 17.1429H0.714286C0.524845 17.1429 0.343164 17.2181 0.209209 17.3521C0.0752549 17.486 0 17.6677 0 17.8571L0 19.2857C0 19.4752 0.0752549 19.6568 0.209209 19.7908C0.343164 19.9247 0.524845 20 0.714286 20H19.2857C19.4752 20 19.6568 19.9247 19.7908 19.7908C19.9247 19.6568 20 19.4752 20 19.2857V17.8571C20 17.6677 19.9247 17.486 19.7908 17.3521C19.6568 17.2181 19.4752 17.1429 19.2857 17.1429ZM19.2857 11.4286H0.714286C0.524845 11.4286 0.343164 11.5038 0.209209 11.6378C0.0752549 11.7717 0 11.9534 0 12.1429L0 13.5714C0 13.7609 0.0752549 13.9426 0.209209 14.0765C0.343164 14.2105 0.524845 14.2857 0.714286 14.2857H19.2857C19.4752 14.2857 19.6568 14.2105 19.7908 14.0765C19.9247 13.9426 20 13.7609 20 13.5714V12.1429C20 11.9534 19.9247 11.7717 19.7908 11.6378C19.6568 11.5038 19.4752 11.4286 19.2857 11.4286ZM19.2857 5.71429H0.714286C0.524845 5.71429 0.343164 5.78954 0.209209 5.9235C0.0752549 6.05745 0 6.23913 0 6.42857L0 7.85714C0 8.04658 0.0752549 8.22826 0.209209 8.36222C0.343164 8.49617 0.524845 8.57143 0.714286 8.57143H19.2857C19.4752 8.57143 19.6568 8.49617 19.7908 8.36222C19.9247 8.22826 20 8.04658 20 7.85714V6.42857C20 6.23913 19.9247 6.05745 19.7908 5.9235C19.6568 5.78954 19.4752 5.71429 19.2857 5.71429ZM19.2857 0H0.714286C0.524845 0 0.343164 0.0752549 0.209209 0.209209C0.0752549 0.343164 0 0.524845 0 0.714286L0 2.14286C0 2.3323 0.0752549 2.51398 0.209209 2.64793C0.343164 2.78189 0.524845 2.85714 0.714286 2.85714H19.2857C19.4752 2.85714 19.6568 2.78189 19.7908 2.64793C19.9247 2.51398 20 2.3323 20 2.14286V0.714286C20 0.524845 19.9247 0.343164 19.7908 0.209209C19.6568 0.0752549 19.4752 0 19.2857 0Z" fill="#F2E5BD"/>
</svg>
