<svg width="103" height="46" viewBox="0 0 103 46" fill="none" xmlns="http://www.w3.org/2000/svg">
<rect width="103" height="46" rx="10" fill="#F2E5BD"/>
<path d="M41.67 20.575C41.4 20.055 41.025 19.665 40.545 19.405C40.065 19.135 39.51 19 38.88 19C38.19 19 37.575 19.155 37.035 19.465C36.495 19.775 36.07 20.215 35.76 20.785C35.46 21.355 35.31 22.015 35.31 22.765C35.31 23.515 35.46 24.18 35.76 24.76C36.07 25.33 36.495 25.77 37.035 26.08C37.575 26.39 38.19 26.545 38.88 26.545C39.81 26.545 40.565 26.285 41.145 25.765C41.725 25.245 42.08 24.54 42.21 23.65H38.295V22.285H44.04V23.62C43.93 24.43 43.64 25.175 43.17 25.855C42.71 26.535 42.105 27.08 41.355 27.49C40.615 27.89 39.79 28.09 38.88 28.09C37.9 28.09 37.005 27.865 36.195 27.415C35.385 26.955 34.74 26.32 34.26 25.51C33.79 24.7 33.555 23.785 33.555 22.765C33.555 21.745 33.79 20.83 34.26 20.02C34.74 19.21 35.385 18.58 36.195 18.13C37.015 17.67 37.91 17.44 38.88 17.44C39.99 17.44 40.975 17.715 41.835 18.265C42.705 18.805 43.335 19.575 43.725 20.575H41.67ZM46.5966 18.64C46.2866 18.64 46.0266 18.535 45.8166 18.325C45.6066 18.115 45.5016 17.855 45.5016 17.545C45.5016 17.235 45.6066 16.975 45.8166 16.765C46.0266 16.555 46.2866 16.45 46.5966 16.45C46.8966 16.45 47.1516 16.555 47.3616 16.765C47.5716 16.975 47.6766 17.235 47.6766 17.545C47.6766 17.855 47.5716 18.115 47.3616 18.325C47.1516 18.535 46.8966 18.64 46.5966 18.64ZM47.4366 19.735V28H45.7266V19.735H47.4366ZM51.6766 21.13V25.705C51.6766 26.015 51.7466 26.24 51.8866 26.38C52.0366 26.51 52.2866 26.575 52.6366 26.575H53.6866V28H52.3366C51.5666 28 50.9766 27.82 50.5666 27.46C50.1566 27.1 49.9516 26.515 49.9516 25.705V21.13H48.9766V19.735H49.9516V17.68H51.6766V19.735H53.6866V21.13H51.6766ZM63.5877 17.575V28H61.8777V23.44H56.9727V28H55.2627V17.575H56.9727V22.045H61.8777V17.575H63.5877ZM73.3239 19.735V28H71.6139V27.025C71.3439 27.365 70.9889 27.635 70.5489 27.835C70.1189 28.025 69.6589 28.12 69.1689 28.12C68.5189 28.12 67.9339 27.985 67.4139 27.715C66.9039 27.445 66.4989 27.045 66.1989 26.515C65.9089 25.985 65.7639 25.345 65.7639 24.595V19.735H67.4589V24.34C67.4589 25.08 67.6439 25.65 68.0139 26.05C68.3839 26.44 68.8889 26.635 69.5289 26.635C70.1689 26.635 70.6739 26.44 71.0439 26.05C71.4239 25.65 71.6139 25.08 71.6139 24.34V19.735H73.3239ZM77.2901 20.965C77.5801 20.565 77.9751 20.24 78.4751 19.99C78.9851 19.73 79.5501 19.6 80.1701 19.6C80.9001 19.6 81.5601 19.775 82.1501 20.125C82.7401 20.475 83.2051 20.975 83.5451 21.625C83.8851 22.265 84.0551 23 84.0551 23.83C84.0551 24.66 83.8851 25.405 83.5451 26.065C83.2051 26.715 82.7351 27.225 82.1351 27.595C81.5451 27.955 80.8901 28.135 80.1701 28.135C79.5301 28.135 78.9601 28.01 78.4601 27.76C77.9701 27.51 77.5801 27.19 77.2901 26.8V28H75.5801V16.9H77.2901V20.965ZM82.3151 23.83C82.3151 23.26 82.1951 22.77 81.9551 22.36C81.7251 21.94 81.4151 21.625 81.0251 21.415C80.6451 21.195 80.2351 21.085 79.7951 21.085C79.3651 21.085 78.9551 21.195 78.5651 21.415C78.1851 21.635 77.8751 21.955 77.6351 22.375C77.4051 22.795 77.2901 23.29 77.2901 23.86C77.2901 24.43 77.4051 24.93 77.6351 25.36C77.8751 25.78 78.1851 26.1 78.5651 26.32C78.9551 26.54 79.3651 26.65 79.7951 26.65C80.2351 26.65 80.6451 26.54 81.0251 26.32C81.4151 26.09 81.7251 25.76 81.9551 25.33C82.1951 24.9 82.3151 24.4 82.3151 23.83Z" fill="#A64141"/>
<path d="M14.6895 29.104C14.6895 29.1867 14.5968 29.2529 14.4798 29.2529C14.3468 29.2653 14.254 29.1991 14.254 29.104C14.254 29.0213 14.3468 28.9551 14.4637 28.9551C14.5847 28.9427 14.6895 29.0089 14.6895 29.104ZM13.4355 28.9179C13.4073 29.0006 13.4879 29.0957 13.6089 29.1205C13.7137 29.1619 13.8347 29.1205 13.8589 29.0378C13.8831 28.9551 13.8065 28.86 13.6855 28.8228C13.5806 28.7938 13.4637 28.8352 13.4355 28.9179ZM15.2177 28.8476C15.1008 28.8765 15.0202 28.9551 15.0323 29.0502C15.0444 29.1329 15.1492 29.1867 15.2702 29.1577C15.3871 29.1288 15.4677 29.0502 15.4556 28.9675C15.4435 28.8889 15.3347 28.8352 15.2177 28.8476ZM17.871 13C12.2782 13 8 17.3548 8 23.0908C8 27.6772 10.8145 31.6019 14.8347 32.9832C15.3508 33.0783 15.5323 32.7516 15.5323 32.4827C15.5323 32.2263 15.5202 30.812 15.5202 29.9435C15.5202 29.9435 12.6976 30.5638 12.1048 28.7111C12.1048 28.7111 11.6452 27.5076 10.9839 27.1975C10.9839 27.1975 10.0605 26.5482 11.0484 26.5606C11.0484 26.5606 12.0524 26.6433 12.6048 27.6276C13.4879 29.2239 14.9677 28.7649 15.5444 28.4919C15.6371 27.8302 15.8992 27.3712 16.1895 27.0982C13.9355 26.8418 11.6613 26.5068 11.6613 22.5284C11.6613 21.3911 11.9677 20.8204 12.6129 20.0925C12.5081 19.8237 12.1653 18.7154 12.7177 17.2845C13.5605 17.0157 15.5 18.4011 15.5 18.4011C16.3065 18.1695 17.1734 18.0496 18.0323 18.0496C18.8911 18.0496 19.7581 18.1695 20.5645 18.4011C20.5645 18.4011 22.504 17.0115 23.3468 17.2845C23.8992 18.7195 23.5565 19.8237 23.4516 20.0925C24.0968 20.8245 24.4919 21.3952 24.4919 22.5284C24.4919 26.5192 22.1169 26.8377 19.8629 27.0982C20.2339 27.4249 20.5484 28.0453 20.5484 29.0171C20.5484 30.4108 20.5363 32.1354 20.5363 32.4745C20.5363 32.7433 20.7218 33.07 21.2339 32.9749C25.2661 31.6019 28 27.6772 28 23.0908C28 17.3548 23.4637 13 17.871 13ZM11.9194 27.2636C11.8669 27.305 11.879 27.4001 11.9476 27.4787C12.0121 27.5449 12.1048 27.5738 12.1573 27.52C12.2097 27.4787 12.1976 27.3836 12.129 27.305C12.0645 27.2388 11.9718 27.2099 11.9194 27.2636ZM11.4839 26.9287C11.4556 26.9824 11.496 27.0486 11.5766 27.0899C11.6411 27.1313 11.7218 27.1189 11.75 27.061C11.7782 27.0072 11.7379 26.9411 11.6573 26.8997C11.5766 26.8749 11.5121 26.8873 11.4839 26.9287ZM12.7903 28.4009C12.7258 28.4547 12.75 28.5788 12.8427 28.6573C12.9355 28.7524 13.0524 28.7649 13.1048 28.6987C13.1573 28.6449 13.1331 28.5209 13.0524 28.4423C12.9637 28.3472 12.8427 28.3348 12.7903 28.4009ZM12.3306 27.793C12.2661 27.8343 12.2661 27.9419 12.3306 28.037C12.3952 28.1321 12.504 28.1735 12.5565 28.1321C12.621 28.0783 12.621 27.9708 12.5565 27.8757C12.5 27.7806 12.3952 27.7392 12.3306 27.793Z" fill="#25193D"/>
</svg>
