<svg width="103" height="46" viewBox="0 0 103 46" fill="none" xmlns="http://www.w3.org/2000/svg">
<rect width="103" height="46" rx="10" fill="#F2E5BD"/>
<path d="M35.835 26.62H39.36V28H34.125V17.575H35.835V26.62ZM41.66 18.64C41.35 18.64 41.09 18.535 40.88 18.325C40.67 18.115 40.565 17.855 40.565 17.545C40.565 17.235 40.67 16.975 40.88 16.765C41.09 16.555 41.35 16.45 41.66 16.45C41.96 16.45 42.215 16.555 42.425 16.765C42.635 16.975 42.74 17.235 42.74 17.545C42.74 17.855 42.635 18.115 42.425 18.325C42.215 18.535 41.96 18.64 41.66 18.64ZM42.5 19.735V28H40.79V19.735H42.5ZM48.9151 19.6C49.5651 19.6 50.1451 19.735 50.6551 20.005C51.1751 20.275 51.5801 20.675 51.8701 21.205C52.1601 21.735 52.3051 22.375 52.3051 23.125V28H50.6101V23.38C50.6101 22.64 50.4251 22.075 50.0551 21.685C49.6851 21.285 49.1801 21.085 48.5401 21.085C47.9001 21.085 47.3901 21.285 47.0101 21.685C46.6401 22.075 46.4551 22.64 46.4551 23.38V28H44.7451V19.735H46.4551V20.68C46.7351 20.34 47.0901 20.075 47.5201 19.885C47.9601 19.695 48.4251 19.6 48.9151 19.6ZM57.7563 23.875L61.5663 28H59.2563L56.1963 24.445V28H54.4863V16.9H56.1963V23.35L59.1963 19.735H61.5663L57.7563 23.875ZM70.367 23.665C70.367 23.975 70.347 24.255 70.307 24.505H63.992C64.042 25.165 64.287 25.695 64.727 26.095C65.167 26.495 65.707 26.695 66.347 26.695C67.267 26.695 67.917 26.31 68.297 25.54H70.142C69.892 26.3 69.437 26.925 68.777 27.415C68.127 27.895 67.317 28.135 66.347 28.135C65.557 28.135 64.847 27.96 64.217 27.61C63.597 27.25 63.107 26.75 62.747 26.11C62.397 25.46 62.222 24.71 62.222 23.86C62.222 23.01 62.392 22.265 62.732 21.625C63.082 20.975 63.567 20.475 64.187 20.125C64.817 19.775 65.537 19.6 66.347 19.6C67.127 19.6 67.822 19.77 68.432 20.11C69.042 20.45 69.517 20.93 69.857 21.55C70.197 22.16 70.367 22.865 70.367 23.665ZM68.582 23.125C68.572 22.495 68.347 21.99 67.907 21.61C67.467 21.23 66.922 21.04 66.272 21.04C65.682 21.04 65.177 21.23 64.757 21.61C64.337 21.98 64.087 22.485 64.007 23.125H68.582ZM71.4798 23.83C71.4798 23 71.6498 22.265 71.9898 21.625C72.3398 20.985 72.8098 20.49 73.3998 20.14C73.9998 19.78 74.6648 19.6 75.3948 19.6C75.9348 19.6 76.4648 19.72 76.9848 19.96C77.5148 20.19 77.9348 20.5 78.2448 20.89V16.9H79.9698V28H78.2448V26.755C77.9648 27.155 77.5748 27.485 77.0748 27.745C76.5848 28.005 76.0198 28.135 75.3798 28.135C74.6598 28.135 73.9998 27.955 73.3998 27.595C72.8098 27.225 72.3398 26.715 71.9898 26.065C71.6498 25.405 71.4798 24.66 71.4798 23.83ZM78.2448 23.86C78.2448 23.29 78.1248 22.795 77.8848 22.375C77.6548 21.955 77.3498 21.635 76.9698 21.415C76.5898 21.195 76.1798 21.085 75.7398 21.085C75.2998 21.085 74.8898 21.195 74.5098 21.415C74.1298 21.625 73.8198 21.94 73.5798 22.36C73.3498 22.77 73.2348 23.26 73.2348 23.83C73.2348 24.4 73.3498 24.9 73.5798 25.33C73.8198 25.76 74.1298 26.09 74.5098 26.32C74.8998 26.54 75.3098 26.65 75.7398 26.65C76.1798 26.65 76.5898 26.54 76.9698 26.32C77.3498 26.1 77.6548 25.78 77.8848 25.36C78.1248 24.93 78.2448 24.43 78.2448 23.86ZM83.9258 17.575V28H82.2158V17.575H83.9258ZM90.3409 19.6C90.9909 19.6 91.5709 19.735 92.0809 20.005C92.6009 20.275 93.0059 20.675 93.2959 21.205C93.5859 21.735 93.7309 22.375 93.7309 23.125V28H92.0359V23.38C92.0359 22.64 91.8509 22.075 91.4809 21.685C91.1109 21.285 90.6059 21.085 89.9659 21.085C89.3259 21.085 88.8159 21.285 88.4359 21.685C88.0659 22.075 87.8809 22.64 87.8809 23.38V28H86.1709V19.735H87.8809V20.68C88.1609 20.34 88.5159 20.075 88.9459 19.885C89.3859 19.695 89.8509 19.6 90.3409 19.6Z" fill="#A64141"/>
<path d="M26.5714 13H9.42411C8.63839 13 8 13.6473 8 14.442V31.558C8 32.3527 8.63839 33 9.42411 33H26.5714C27.3571 33 28 32.3527 28 31.558V14.442C28 13.6473 27.3571 13 26.5714 13ZM14.0446 30.1429H11.0804V20.5982H14.0491V30.1429H14.0446ZM12.5625 19.2946C11.6116 19.2946 10.8438 18.5223 10.8438 17.5759C10.8438 16.6295 11.6116 15.8571 12.5625 15.8571C13.5089 15.8571 14.2813 16.6295 14.2813 17.5759C14.2813 18.5268 13.5134 19.2946 12.5625 19.2946V19.2946ZM25.1562 30.1429H22.192V25.5C22.192 24.3929 22.1696 22.9688 20.6518 22.9688C19.1071 22.9688 18.8705 24.1741 18.8705 25.4196V30.1429H15.9063V20.5982H18.75V21.9018H18.7902C19.1875 21.1518 20.1563 20.3616 21.5982 20.3616C24.5982 20.3616 25.1562 22.3393 25.1562 24.9107V30.1429V30.1429Z" fill="#25193D"/>
</svg>
