<svg width="217" height="70" viewBox="0 0 217 70" fill="none" xmlns="http://www.w3.org/2000/svg">
<rect x="1" y="1" width="215" height="68" rx="9" fill="#E2E2DB" stroke="#D9644A" stroke-width="2"/>
<path d="M68.925 35.275C68.925 33.575 69.3167 32.05 70.1 30.7C70.9 29.35 71.975 28.3 73.325 27.55C74.6917 26.7833 76.1833 26.4 77.8 26.4C79.65 26.4 81.2917 26.8583 82.725 27.775C84.175 28.675 85.225 29.9583 85.875 31.625H82.45C82 30.7083 81.375 30.025 80.575 29.575C79.775 29.125 78.85 28.9 77.8 28.9C76.65 28.9 75.625 29.1583 74.725 29.675C73.825 30.1917 73.1167 30.9333 72.6 31.9C72.1 32.8667 71.85 33.9917 71.85 35.275C71.85 36.5583 72.1 37.6833 72.6 38.65C73.1167 39.6167 73.825 40.3667 74.725 40.9C75.625 41.4167 76.65 41.675 77.8 41.675C78.85 41.675 79.775 41.45 80.575 41C81.375 40.55 82 39.8667 82.45 38.95H85.875C85.225 40.6167 84.175 41.9 82.725 42.8C81.2917 43.7 79.65 44.15 77.8 44.15C76.1667 44.15 74.675 43.775 73.325 43.025C71.975 42.2583 70.9 41.2 70.1 39.85C69.3167 38.5 68.925 36.975 68.925 35.275ZM101.686 30.225V44H98.8359V42.375C98.3859 42.9417 97.7943 43.3917 97.0609 43.725C96.3443 44.0417 95.5776 44.2 94.7609 44.2C93.6776 44.2 92.7026 43.975 91.8359 43.525C90.9859 43.075 90.3109 42.4083 89.8109 41.525C89.3276 40.6417 89.0859 39.575 89.0859 38.325V30.225H91.9109V37.9C91.9109 39.1333 92.2193 40.0833 92.8359 40.75C93.4526 41.4 94.2943 41.725 95.3609 41.725C96.4276 41.725 97.2693 41.4 97.8859 40.75C98.5193 40.0833 98.8359 39.1333 98.8359 37.9V30.225H101.686ZM108.296 32.225C108.713 31.525 109.263 30.9833 109.946 30.6C110.646 30.2 111.471 30 112.421 30V32.95H111.696C110.58 32.95 109.73 33.2333 109.146 33.8C108.58 34.3667 108.296 35.35 108.296 36.75V44H105.446V30.225H108.296V32.225ZM117.891 32.225C118.308 31.525 118.858 30.9833 119.541 30.6C120.241 30.2 121.066 30 122.016 30V32.95H121.291C120.174 32.95 119.324 33.2333 118.741 33.8C118.174 34.3667 117.891 35.35 117.891 36.75V44H115.041V30.225H117.891V32.225ZM127.486 30.225V44H124.636V30.225H127.486ZM128.636 26.525L123.111 29.25V27.15L128.636 24.1V26.525ZM130.278 37.1C130.278 35.6833 130.561 34.4417 131.128 33.375C131.711 32.2917 132.511 31.4583 133.528 30.875C134.544 30.2917 135.711 30 137.028 30C138.694 30 140.069 30.4 141.153 31.2C142.253 31.9833 142.994 33.1083 143.378 34.575H140.303C140.053 33.8917 139.653 33.3583 139.103 32.975C138.553 32.5917 137.861 32.4 137.028 32.4C135.861 32.4 134.928 32.8167 134.228 33.65C133.544 34.4667 133.203 35.6167 133.203 37.1C133.203 38.5833 133.544 39.7417 134.228 40.575C134.928 41.4083 135.861 41.825 137.028 41.825C138.678 41.825 139.769 41.1 140.303 39.65H143.378C142.978 41.05 142.228 42.1667 141.128 43C140.028 43.8167 138.661 44.225 137.028 44.225C135.711 44.225 134.544 43.9333 133.528 43.35C132.511 42.75 131.711 41.9167 131.128 40.85C130.561 39.7667 130.278 38.5167 130.278 37.1ZM158.693 30.225V44H155.843V42.375C155.393 42.9417 154.801 43.3917 154.068 43.725C153.351 44.0417 152.584 44.2 151.768 44.2C150.684 44.2 149.709 43.975 148.843 43.525C147.993 43.075 147.318 42.4083 146.818 41.525C146.334 40.6417 146.093 39.575 146.093 38.325V30.225H148.918V37.9C148.918 39.1333 149.226 40.0833 149.843 40.75C150.459 41.4 151.301 41.725 152.368 41.725C153.434 41.725 154.276 41.4 154.893 40.75C155.526 40.0833 155.843 39.1333 155.843 37.9V30.225H158.693ZM165.303 25.5V44H162.453V25.5H165.303ZM175.02 44.225C173.72 44.225 172.545 43.9333 171.495 43.35C170.445 42.75 169.62 41.9167 169.02 40.85C168.42 39.7667 168.12 38.5167 168.12 37.1C168.12 35.7 168.428 34.4583 169.045 33.375C169.662 32.2917 170.503 31.4583 171.57 30.875C172.637 30.2917 173.828 30 175.145 30C176.462 30 177.653 30.2917 178.72 30.875C179.787 31.4583 180.628 32.2917 181.245 33.375C181.862 34.4583 182.17 35.7 182.17 37.1C182.17 38.5 181.853 39.7417 181.22 40.825C180.587 41.9083 179.72 42.75 178.62 43.35C177.537 43.9333 176.337 44.225 175.02 44.225ZM175.02 41.75C175.753 41.75 176.437 41.575 177.07 41.225C177.72 40.875 178.245 40.35 178.645 39.65C179.045 38.95 179.245 38.1 179.245 37.1C179.245 36.1 179.053 35.2583 178.67 34.575C178.287 33.875 177.778 33.35 177.145 33C176.512 32.65 175.828 32.475 175.095 32.475C174.362 32.475 173.678 32.65 173.045 33C172.428 33.35 171.937 33.875 171.57 34.575C171.203 35.2583 171.02 36.1 171.02 37.1C171.02 38.5833 171.395 39.7333 172.145 40.55C172.912 41.35 173.87 41.75 175.02 41.75Z" fill="#25193D"/>
<path d="M65 34.5912C65 43.2041 57.8387 50.1824 49 50.1824C40.1613 50.1824 33 43.2041 33 34.5912C33 25.9783 40.1613 19 49 19C57.8387 19 65 25.9783 65 34.5912ZM46.1613 27.2985V34.5912H41.5871C40.8968 34.5912 40.5484 35.4085 41.0387 35.88L48.4516 43.0658C48.7548 43.3612 49.2387 43.3612 49.5419 43.0658L56.9548 35.88C57.4452 35.4022 57.0968 34.5912 56.4065 34.5912H51.8387V27.2985C51.8387 26.8836 51.4903 26.5441 51.0645 26.5441H46.9355C46.5097 26.5441 46.1613 26.8836 46.1613 27.2985Z" fill="#263238"/>
</svg>
