<svg width="217" height="70" viewBox="0 0 217 70" fill="none" xmlns="http://www.w3.org/2000/svg">
<rect x="2.5" y="2.5" width="212" height="65" rx="7.5" fill="#272727" stroke="#D9644A" stroke-width="5"/>
<path d="M77.925 35.275C77.925 33.575 78.3167 32.05 79.1 30.7C79.9 29.35 80.975 28.3 82.325 27.55C83.6917 26.7833 85.1833 26.4 86.8 26.4C88.65 26.4 90.2917 26.8583 91.725 27.775C93.175 28.675 94.225 29.9583 94.875 31.625H91.45C91 30.7083 90.375 30.025 89.575 29.575C88.775 29.125 87.85 28.9 86.8 28.9C85.65 28.9 84.625 29.1583 83.725 29.675C82.825 30.1917 82.1167 30.9333 81.6 31.9C81.1 32.8667 80.85 33.9917 80.85 35.275C80.85 36.5583 81.1 37.6833 81.6 38.65C82.1167 39.6167 82.825 40.3667 83.725 40.9C84.625 41.4167 85.65 41.675 86.8 41.675C87.85 41.675 88.775 41.45 89.575 41C90.375 40.55 91 39.8667 91.45 38.95H94.875C94.225 40.6167 93.175 41.9 91.725 42.8C90.2917 43.7 88.65 44.15 86.8 44.15C85.1667 44.15 83.675 43.775 82.325 43.025C80.975 42.2583 79.9 41.2 79.1 39.85C78.3167 38.5 77.925 36.975 77.925 35.275ZM110.686 30.225V44H107.836V42.375C107.386 42.9417 106.794 43.3917 106.061 43.725C105.344 44.0417 104.578 44.2 103.761 44.2C102.678 44.2 101.703 43.975 100.836 43.525C99.9859 43.075 99.3109 42.4083 98.8109 41.525C98.3276 40.6417 98.0859 39.575 98.0859 38.325V30.225H100.911V37.9C100.911 39.1333 101.219 40.0833 101.836 40.75C102.453 41.4 103.294 41.725 104.361 41.725C105.428 41.725 106.269 41.4 106.886 40.75C107.519 40.0833 107.836 39.1333 107.836 37.9V30.225H110.686ZM117.296 32.225C117.713 31.525 118.263 30.9833 118.946 30.6C119.646 30.2 120.471 30 121.421 30V32.95H120.696C119.58 32.95 118.73 33.2333 118.146 33.8C117.58 34.3667 117.296 35.35 117.296 36.75V44H114.446V30.225H117.296V32.225ZM126.891 32.225C127.308 31.525 127.858 30.9833 128.541 30.6C129.241 30.2 130.066 30 131.016 30V32.95H130.291C129.174 32.95 128.324 33.2333 127.741 33.8C127.174 34.3667 126.891 35.35 126.891 36.75V44H124.041V30.225H126.891V32.225ZM136.486 30.225V44H133.636V30.225H136.486ZM137.636 26.525L132.111 29.25V27.15L137.636 24.1V26.525ZM139.278 37.1C139.278 35.6833 139.561 34.4417 140.128 33.375C140.711 32.2917 141.511 31.4583 142.528 30.875C143.544 30.2917 144.711 30 146.028 30C147.694 30 149.069 30.4 150.153 31.2C151.253 31.9833 151.994 33.1083 152.378 34.575H149.303C149.053 33.8917 148.653 33.3583 148.103 32.975C147.553 32.5917 146.861 32.4 146.028 32.4C144.861 32.4 143.928 32.8167 143.228 33.65C142.544 34.4667 142.203 35.6167 142.203 37.1C142.203 38.5833 142.544 39.7417 143.228 40.575C143.928 41.4083 144.861 41.825 146.028 41.825C147.678 41.825 148.769 41.1 149.303 39.65H152.378C151.978 41.05 151.228 42.1667 150.128 43C149.028 43.8167 147.661 44.225 146.028 44.225C144.711 44.225 143.544 43.9333 142.528 43.35C141.511 42.75 140.711 41.9167 140.128 40.85C139.561 39.7667 139.278 38.5167 139.278 37.1ZM167.693 30.225V44H164.843V42.375C164.393 42.9417 163.801 43.3917 163.068 43.725C162.351 44.0417 161.584 44.2 160.768 44.2C159.684 44.2 158.709 43.975 157.843 43.525C156.993 43.075 156.318 42.4083 155.818 41.525C155.334 40.6417 155.093 39.575 155.093 38.325V30.225H157.918V37.9C157.918 39.1333 158.226 40.0833 158.843 40.75C159.459 41.4 160.301 41.725 161.368 41.725C162.434 41.725 163.276 41.4 163.893 40.75C164.526 40.0833 164.843 39.1333 164.843 37.9V30.225H167.693ZM174.303 25.5V44H171.453V25.5H174.303ZM184.02 44.225C182.72 44.225 181.545 43.9333 180.495 43.35C179.445 42.75 178.62 41.9167 178.02 40.85C177.42 39.7667 177.12 38.5167 177.12 37.1C177.12 35.7 177.428 34.4583 178.045 33.375C178.662 32.2917 179.503 31.4583 180.57 30.875C181.637 30.2917 182.828 30 184.145 30C185.462 30 186.653 30.2917 187.72 30.875C188.787 31.4583 189.628 32.2917 190.245 33.375C190.862 34.4583 191.17 35.7 191.17 37.1C191.17 38.5 190.853 39.7417 190.22 40.825C189.587 41.9083 188.72 42.75 187.62 43.35C186.537 43.9333 185.337 44.225 184.02 44.225ZM184.02 41.75C184.753 41.75 185.437 41.575 186.07 41.225C186.72 40.875 187.245 40.35 187.645 39.65C188.045 38.95 188.245 38.1 188.245 37.1C188.245 36.1 188.053 35.2583 187.67 34.575C187.287 33.875 186.778 33.35 186.145 33C185.512 32.65 184.828 32.475 184.095 32.475C183.362 32.475 182.678 32.65 182.045 33C181.428 33.35 180.937 33.875 180.57 34.575C180.203 35.2583 180.02 36.1 180.02 37.1C180.02 38.5833 180.395 39.7333 181.145 40.55C181.912 41.35 182.87 41.75 184.02 41.75Z" fill="#D9644A"/>
<path d="M63 34.6157C63 43.2422 55.8387 50.2315 47 50.2315C38.1613 50.2315 31 43.2422 31 34.6157C31 25.9893 38.1613 19 47 19C55.8387 19 63 25.9893 63 34.6157ZM44.1613 27.3116V34.6157H39.5871C38.8968 34.6157 38.5484 35.4343 39.0387 35.9066L46.4516 43.1036C46.7548 43.3996 47.2387 43.3996 47.5419 43.1036L54.9548 35.9066C55.4452 35.428 55.0968 34.6157 54.4065 34.6157H49.8387V27.3116C49.8387 26.896 49.4903 26.556 49.0645 26.556H44.9355C44.5097 26.556 44.1613 26.896 44.1613 27.3116Z" fill="#F2E5BD"/>
</svg>
