<svg width="543" height="567" viewBox="0 0 543 567" fill="none" xmlns="http://www.w3.org/2000/svg">
<path d="M443.034 286.335C537.787 344.452 537.787 438.688 443.034 496.805C348.28 554.923 194.666 554.923 99.9663 496.805C5.21281 438.688 5.21281 344.452 99.9663 286.335C194.72 228.217 348.335 228.217 443.034 286.335V286.335Z" fill="#F5F5F5"/>
<path d="M102.03 392.251C116.093 400.699 116.093 414.42 102.03 422.925C88.0203 431.374 65.2686 431.374 51.2049 422.925C37.1412 414.42 37.1412 400.699 51.2049 392.251C65.2686 383.802 88.0203 383.802 102.03 392.251Z" fill="#E0E0E0"/>
<path d="M132.872 406.029L348.443 276.072C351.049 274.485 355.231 274.485 357.837 276.072L485.17 352.844C487.777 354.432 487.777 356.983 485.17 358.514L269.599 488.471C266.993 490.058 262.812 490.058 260.206 488.471L132.872 411.699C130.266 410.168 130.266 407.616 132.872 406.029Z" fill="#E0E0E0"/>
<path d="M454.274 331.015L445.369 325.628C445.369 325.628 440.101 302.721 442.219 282.082C445.151 253.109 460.084 240.521 470.401 244.717C477.243 247.552 479.36 255.66 467.849 272.897C461.061 283.103 452.753 304.309 454.274 331.015Z" fill="#070A40"/>
<g opacity="0.3">
<path d="M454.274 331.015L445.369 325.628C445.369 325.628 440.101 302.721 442.219 282.082C445.151 253.109 460.084 240.521 470.401 244.717C477.243 247.552 479.36 255.66 467.849 272.897C461.061 283.103 452.753 304.309 454.274 331.015Z" fill="#070A40"/>
</g>
<path d="M449.93 319.221C444.988 292.062 454.111 261.557 465.405 248.799C465.622 248.573 466.003 248.573 466.274 248.799C466.491 249.026 466.546 249.423 466.328 249.707C455.251 262.181 446.292 292.232 451.124 318.994C451.233 319.334 451.016 319.675 450.636 319.731C450.636 319.731 450.618 319.731 450.581 319.731C450.256 319.731 449.984 319.504 449.93 319.221Z" fill="white"/>
<path d="M453.894 330.788C453.894 330.788 450.364 325.798 449.115 323.133C447.649 319.958 447.106 317.86 446.726 314.912C446.509 313.211 446.618 311.51 447.432 309.979C449.224 306.463 452.645 304.819 453.677 301.02C454.817 296.654 451.016 291.892 452.753 287.809C453.622 285.711 455.74 284.464 457.803 283.783C459.867 283.103 462.093 282.82 464.048 281.856C469.206 279.361 471.704 273.124 476.537 269.949C478.003 268.985 479.686 268.077 481.424 267.907C483.27 267.681 485.333 267.737 486.8 268.985C488.591 270.516 488.863 273.351 488.211 275.675C487.56 277.943 486.202 279.985 485.171 282.139C484.736 283.16 484.356 284.237 484.302 285.371C484.193 287.185 485.062 288.886 486.094 290.304C487.56 292.345 489.406 293.989 490.981 295.86C492.555 297.732 493.913 300 494.021 302.494C494.184 305.783 491.904 308.278 489.732 310.206C487.723 311.907 485.496 313.948 485.279 316.669C485.225 317.973 485.605 319.334 486.039 320.582C486.474 321.905 486.908 323.209 487.343 324.494C487.777 325.798 488.211 327.159 488.429 328.52C488.917 331.128 488.754 333.736 487.723 336.174C486.854 338.329 485.442 340.2 483.65 341.617C482.618 342.411 478.872 345.756 477.514 345.019C477.297 344.906 453.894 330.788 453.894 330.788V330.788Z" fill="#25193D"/>
<g opacity="0.1">
<path d="M453.894 330.788C453.894 330.788 450.364 325.798 449.115 323.133C447.649 319.958 447.106 317.86 446.726 314.912C446.509 313.211 446.618 311.51 447.432 309.979C449.224 306.463 452.645 304.819 453.677 301.02C454.817 296.654 451.016 291.892 452.753 287.809C453.622 285.711 455.74 284.464 457.803 283.783C459.867 283.103 462.093 282.82 464.048 281.856C469.206 279.361 471.704 273.124 476.537 269.949C478.003 268.985 479.686 268.077 481.424 267.907C483.27 267.681 485.333 267.737 486.8 268.985C488.591 270.516 488.863 273.351 488.211 275.675C487.56 277.943 486.202 279.985 485.171 282.139C484.736 283.16 484.356 284.237 484.302 285.371C484.193 287.185 485.062 288.886 486.094 290.304C487.56 292.345 489.406 293.989 490.981 295.86C492.555 297.732 493.913 300 494.021 302.494C494.184 305.783 491.904 308.278 489.732 310.206C487.723 311.907 485.496 313.948 485.279 316.669C485.225 317.973 485.605 319.334 486.039 320.582C486.474 321.905 486.908 323.209 487.343 324.494C487.777 325.798 488.211 327.159 488.429 328.52C488.917 331.128 488.754 333.736 487.723 336.174C486.854 338.329 485.442 340.2 483.65 341.617C482.618 342.411 478.872 345.756 477.514 345.019C477.297 344.906 453.894 330.788 453.894 330.788V330.788Z" fill="#D9644A"/>
</g>
<path d="M463.288 337.025C461.007 311.226 471.324 282.026 479.469 273.237C479.686 273.01 480.066 272.954 480.338 273.237C480.555 273.464 480.609 273.861 480.338 274.144C472.41 282.763 462.256 311.51 464.482 336.911C464.537 337.251 464.265 337.592 463.939 337.592C463.939 337.592 463.921 337.592 463.885 337.592C463.559 337.648 463.288 337.365 463.288 337.025V337.025Z" fill="white"/>
<path d="M465.731 305.84C465.623 305.5 465.785 305.159 466.111 304.989C473.93 302.041 483.867 301.02 483.976 301.02C484.302 300.964 484.573 301.247 484.627 301.587C484.682 301.984 484.41 302.268 484.084 302.324C483.976 302.324 474.202 303.288 466.491 306.237C466.455 306.237 466.401 306.237 466.328 306.237C466.057 306.293 465.84 306.123 465.731 305.84V305.84Z" fill="white"/>
<path d="M142.592 388.282L348.497 264.109C351.484 262.351 356.317 262.351 359.249 264.109L476.211 334.643C479.197 336.458 481.587 340.597 481.587 343.942C481.587 347.344 479.197 351.483 476.211 353.298L270.251 477.414C267.319 479.228 262.486 479.228 259.554 477.414L142.592 406.936C139.605 405.121 137.216 400.982 137.216 397.58C137.216 394.235 139.605 390.096 142.592 388.282V388.282Z" fill="#37474F"/>
<path d="M142.32 388.565L348.28 264.449C351.212 262.634 356.045 262.634 358.977 264.449L475.939 334.927C478.926 336.741 478.926 339.633 475.939 341.447L270.034 465.564C267.047 467.378 262.215 467.378 259.282 465.564L142.32 395.085C139.334 393.271 139.334 390.379 142.32 388.565V388.565Z" fill="#455A64"/>
<path d="M264.93 466.641V478.775C262.975 478.775 261.02 478.321 259.554 477.414L142.592 406.936C139.605 405.122 137.216 400.982 137.216 397.58C137.216 394.462 139.334 390.606 142.049 388.622C139.605 390.436 139.822 393.101 142.592 394.745L259.554 465.28C261.02 466.187 262.975 466.641 264.93 466.641Z" fill="#263238"/>
<path d="M132.166 388.508C129.397 386.807 129.56 383.972 129.56 380.4V211.718C129.56 208.146 131.949 203.78 134.935 202.022L340.841 77.8491C343.828 76.0347 348.497 75.978 351.267 77.6223C354.036 79.3233 353.873 82.1583 353.873 85.7304V254.413C353.873 257.985 351.484 262.351 348.497 264.109L142.592 388.282C139.605 390.096 134.935 390.153 132.166 388.508V388.508Z" fill="#37474F"/>
<path d="M353.873 85.7304C353.873 82.1583 351.484 80.7408 348.497 82.4985L142.592 206.672C141.071 207.522 139.768 209.11 138.791 210.867L131.134 206.218C132.058 204.46 133.415 202.873 134.935 202.022L340.841 77.8491C343.828 76.0347 348.497 75.978 351.267 77.6223C354.036 79.3233 353.873 82.1583 353.873 85.7304V85.7304Z" fill="#455A64"/>
<path d="M141.94 388.622C139.008 390.096 134.773 390.039 132.166 388.509C129.397 386.808 129.56 383.973 129.56 380.4V211.718C129.56 209.904 130.157 207.919 131.134 206.218L138.791 210.811V210.867C137.813 212.625 137.216 214.553 137.216 216.367V385.05C137.216 388.338 139.279 389.869 141.94 388.622Z" fill="#263238"/>
<path d="M145.47 213.135L344.045 93.4415C345.782 92.3642 347.248 93.2714 347.248 95.3693V242.619C347.248 244.774 345.782 247.382 344.045 248.459L145.47 368.153C143.678 369.23 142.266 368.323 142.266 366.169V218.975C142.266 216.821 143.678 214.213 145.47 213.135V213.135Z" fill="#FAFAFA"/>
<path d="M157.47 388.622L348.606 273.351C350.072 272.5 352.516 272.5 353.982 273.351L357.131 275.222C358.652 276.072 358.652 277.547 357.131 278.454L165.995 393.668C164.475 394.575 162.086 394.575 160.619 393.668L157.47 391.854C155.95 390.947 155.95 389.529 157.47 388.622V388.622Z" fill="#263238"/>
<path d="M172.457 397.921L363.593 282.706C365.059 281.799 367.285 281.686 368.48 282.423L418.273 312.417C419.468 313.154 419.25 314.458 417.784 315.366L226.865 430.467C225.399 431.317 223.173 431.487 221.924 430.75L171.968 400.869C170.774 400.132 170.936 398.828 172.457 397.921Z" fill="#263238"/>
<path fill-rule="evenodd" clip-rule="evenodd" d="M337.203 331.128L331.502 327.67C331.23 327.556 331.284 327.273 331.556 327.159L337.529 323.53C337.746 323.36 338.18 323.36 338.398 323.53L344.099 326.932C344.316 327.102 344.316 327.329 344.045 327.499L338.072 331.072C337.8 331.242 337.42 331.242 337.203 331.128ZM330.198 318.598L335.954 322C336.171 322.17 336.117 322.396 335.9 322.567L329.873 326.139C329.655 326.309 329.275 326.309 329.004 326.195L323.302 322.737C323.085 322.623 323.085 322.34 323.357 322.226L329.33 318.598C329.601 318.427 329.981 318.427 330.198 318.598ZM310.868 330.221L316.623 333.68C316.84 333.793 316.786 334.077 316.569 334.19L306.415 340.314C306.143 340.484 305.763 340.484 305.546 340.37L299.845 336.912C299.573 336.742 299.627 336.515 299.899 336.345L309.999 330.278C310.27 330.108 310.65 330.108 310.868 330.221V330.221ZM321.456 323.871L327.212 327.273C327.429 327.443 327.375 327.67 327.158 327.84L321.13 331.412C320.913 331.582 320.533 331.582 320.261 331.468L314.56 328.01C314.343 327.896 314.343 327.613 314.614 327.499L320.587 323.871C320.859 323.701 321.239 323.701 321.456 323.871ZM297.998 337.989L303.7 341.448C303.917 341.618 303.917 341.844 303.646 341.958L297.673 345.587C297.401 345.757 297.021 345.757 296.804 345.643L291.048 342.185C290.831 342.015 290.885 341.788 291.102 341.618L297.13 338.046C297.347 337.876 297.781 337.875 297.998 337.989ZM289.256 343.262L294.958 346.721C295.175 346.891 295.175 347.118 294.903 347.231L288.93 350.86C288.659 351.03 288.279 351.03 288.062 350.917L282.306 347.458C282.089 347.288 282.143 347.061 282.36 346.891L288.387 343.319C288.604 343.149 288.985 343.149 289.256 343.262ZM309.944 357.437L304.189 353.978C303.971 353.808 304.026 353.581 304.243 353.468L310.27 349.839C310.487 349.669 310.868 349.669 311.139 349.783L316.841 353.241C317.058 353.411 317.058 353.638 316.786 353.808L310.813 357.38C310.542 357.55 310.162 357.55 309.944 357.437ZM301.202 362.71L295.446 359.251C295.229 359.081 295.283 358.855 295.501 358.741L301.474 355.112C301.745 354.942 302.125 354.942 302.397 355.056L308.098 358.514C308.315 358.684 308.315 358.911 308.044 359.081L302.071 362.653C301.799 362.823 301.419 362.824 301.202 362.71ZM292.46 367.983L286.704 364.525C286.487 364.354 286.487 364.128 286.758 364.014L292.731 360.385C293.003 360.215 293.383 360.215 293.6 360.329L299.356 363.787C299.573 363.957 299.573 364.184 299.302 364.354L293.329 367.927C293.057 368.097 292.677 368.097 292.46 367.983ZM283.718 373.256L277.962 369.798C277.745 369.628 277.745 369.401 278.016 369.287L283.989 365.659C284.261 365.488 284.641 365.488 284.858 365.602L290.614 369.061C290.831 369.231 290.831 369.457 290.559 369.628L284.586 373.2C284.315 373.37 283.935 373.37 283.718 373.256ZM328.461 336.401L322.759 332.943C322.488 332.829 322.542 332.546 322.759 332.432L328.787 328.804C329.004 328.633 329.438 328.633 329.655 328.804L335.357 332.206C335.574 332.376 335.574 332.602 335.303 332.773L329.33 336.345C329.058 336.515 328.678 336.515 328.461 336.401ZM318.687 352.164L312.985 348.705C312.714 348.535 312.768 348.308 312.985 348.195L318.524 344.85C318.795 344.68 318.795 344.453 318.578 344.339L311.248 339.86C310.976 339.747 311.03 339.52 311.302 339.35L318.198 335.211C318.415 335.041 318.85 335.04 319.067 335.154L332.968 343.546C333.185 343.659 333.185 343.942 332.913 344.056L319.556 352.107C319.284 352.277 318.904 352.277 318.687 352.164V352.164ZM280.46 348.535L286.215 351.994C286.432 352.164 286.433 352.391 286.161 352.504L280.188 356.133C279.917 356.303 279.536 356.303 279.319 356.19L273.563 352.731C273.346 352.561 273.401 352.334 273.618 352.164L279.591 348.592C279.862 348.422 280.242 348.422 280.46 348.535ZM271.717 353.808L277.473 357.267C277.69 357.437 277.69 357.664 277.419 357.777L271.446 361.406C271.174 361.576 270.794 361.576 270.577 361.463L264.821 358.004C264.604 357.834 264.604 357.607 264.875 357.437L270.848 353.865C271.12 353.695 271.5 353.695 271.717 353.808ZM216.711 406.709C216.494 406.596 216.548 406.312 216.766 406.199L222.793 402.57C223.01 402.4 223.444 402.4 223.662 402.57L229.363 405.972C229.58 406.142 229.58 406.369 229.309 406.539L223.336 410.111C223.064 410.281 222.684 410.281 222.467 410.168L216.711 406.709ZM201.724 395.993L207.48 399.452C207.698 399.565 207.643 399.849 207.426 399.962L201.399 403.591C201.181 403.761 200.801 403.761 200.53 403.591L194.828 400.189C194.611 400.019 194.611 399.792 194.883 399.622L200.856 396.05C201.127 395.88 201.507 395.88 201.724 395.993ZM206.231 403.137C206.014 403.024 206.014 402.797 206.286 402.627L212.259 398.998C212.53 398.885 212.91 398.828 213.128 398.998L218.883 402.457C219.101 402.57 219.046 402.797 218.829 402.967L212.802 406.596C212.584 406.709 212.204 406.766 211.933 406.596L206.231 403.137ZM235.228 412.323L229.526 408.864C229.309 408.694 229.309 408.467 229.58 408.297L235.553 404.725C235.825 404.555 236.205 404.555 236.422 404.668L242.124 408.127C242.395 408.297 242.341 408.524 242.069 408.637L236.096 412.266C235.879 412.436 235.445 412.436 235.228 412.323ZM220.784 414.137C220.567 413.967 220.567 413.74 220.838 413.57L226.811 409.998C227.083 409.828 227.463 409.828 227.68 409.941L233.381 413.4C233.599 413.57 233.599 413.797 233.327 413.91L227.354 417.539C227.083 417.709 226.703 417.709 226.485 417.596L220.784 414.137ZM210.521 390.72L216.277 394.179C216.494 394.292 216.44 394.519 216.223 394.689L210.195 398.318C209.978 398.431 209.598 398.488 209.327 398.318L203.625 394.859C203.408 394.746 203.408 394.519 203.679 394.349L209.652 390.72C209.924 390.606 210.304 390.606 210.521 390.72ZM254.287 364.354L259.988 367.813C260.206 367.927 260.206 368.153 259.934 368.323L253.961 371.952C253.69 372.066 253.31 372.122 253.092 371.952L247.337 368.494C247.119 368.38 247.174 368.153 247.391 367.983L253.418 364.354C253.635 364.241 254.015 364.184 254.287 364.354ZM219.263 385.447L225.019 388.906C225.236 389.019 225.182 389.246 224.965 389.416L218.938 393.045C218.72 393.158 218.34 393.215 218.069 393.045L212.367 389.586C212.15 389.472 212.15 389.246 212.422 389.076L218.395 385.447C218.666 385.333 219.046 385.333 219.263 385.447ZM263.029 359.081L268.731 362.54C268.948 362.653 268.948 362.88 268.676 363.05L262.703 366.679C262.432 366.793 262.052 366.849 261.835 366.679L256.079 363.22C255.862 363.107 255.916 362.88 256.133 362.71L262.16 359.081C262.378 358.968 262.758 358.911 263.029 359.081ZM245.49 369.628L251.246 373.086C251.463 373.2 251.463 373.426 251.192 373.597L245.219 377.225C244.947 377.339 244.567 377.395 244.35 377.225L238.594 373.767C238.377 373.653 238.431 373.426 238.649 373.256L244.622 369.628C244.893 369.514 245.273 369.514 245.49 369.628ZM236.748 374.901L242.504 378.359C242.721 378.473 242.721 378.7 242.45 378.87L236.477 382.498C236.205 382.612 235.825 382.668 235.608 382.498L229.852 379.04C229.635 378.926 229.635 378.699 229.906 378.529L235.879 374.901C236.151 374.787 236.531 374.787 236.748 374.901ZM228.006 380.174L233.762 383.632C233.979 383.746 233.924 383.973 233.707 384.143L227.734 387.772C227.463 387.885 227.083 387.942 226.865 387.772L221.11 384.313C220.892 384.199 220.892 383.973 221.164 383.803L227.137 380.174C227.408 380.06 227.788 380.06 228.006 380.174ZM306.958 378.926C307.229 379.04 307.175 379.267 306.904 379.437L257.654 409.147C257.436 409.317 257.002 409.317 256.785 409.147L251.083 405.745C250.866 405.575 250.866 405.348 251.138 405.178L300.388 375.524C300.659 375.354 301.039 375.354 301.256 375.468L306.958 378.926ZM349.529 306.917L355.285 310.376C355.502 310.489 355.448 310.716 355.231 310.886L349.203 314.458C348.986 314.628 348.606 314.629 348.335 314.515L342.633 311.056C342.416 310.943 342.416 310.716 342.687 310.546L348.66 306.917C348.932 306.804 349.312 306.747 349.529 306.917ZM338.941 313.268L344.696 316.726C344.914 316.896 344.859 317.123 344.642 317.237L338.615 320.866C338.398 321.036 338.018 321.036 337.746 320.922L332.045 317.464C331.827 317.293 331.827 317.067 332.099 316.953L338.072 313.324C338.343 313.154 338.723 313.154 338.941 313.268ZM358.271 301.644L364.027 305.103C364.244 305.216 364.19 305.443 363.973 305.613L358 309.185C357.728 309.355 357.348 309.355 357.131 309.242L351.375 305.783C351.158 305.67 351.158 305.443 351.43 305.273L357.403 301.644C357.674 301.531 358.054 301.474 358.271 301.644ZM308.207 348.592L302.451 345.133C302.234 345.02 302.288 344.793 302.505 344.623L308.533 340.994C308.75 340.881 309.13 340.824 309.401 340.994L315.103 344.453C315.32 344.566 315.32 344.793 315.049 344.963L309.076 348.535C308.804 348.705 308.424 348.705 308.207 348.592ZM372.77 299.83C372.987 299.943 372.987 300.17 372.715 300.34L366.742 303.912C366.471 304.082 366.091 304.082 365.873 303.969L360.118 300.51C359.9 300.397 359.9 300.17 360.172 300L366.145 296.371C366.416 296.258 366.797 296.201 367.014 296.371L372.77 299.83ZM274.975 378.529L269.219 375.071C269.002 374.901 269.057 374.674 269.274 374.56L275.301 370.932C275.518 370.762 275.953 370.761 276.17 370.875L281.871 374.334C282.088 374.504 282.089 374.73 281.817 374.844L275.844 378.473C275.573 378.643 275.192 378.643 274.975 378.529ZM382.218 313.835L376.516 310.376C376.299 310.263 376.299 310.036 376.571 309.866L382.544 306.237C382.815 306.123 383.195 306.067 383.412 306.237L389.168 309.696C389.385 309.809 389.331 310.036 389.114 310.206L383.087 313.835C382.869 313.948 382.489 313.948 382.218 313.835ZM365.33 314.175L359.575 310.716C359.357 310.603 359.412 310.376 359.629 310.206L365.602 306.577C365.873 306.464 366.254 306.407 366.471 306.577L372.227 310.036C372.444 310.149 372.444 310.376 372.172 310.546L366.199 314.175C365.928 314.288 365.548 314.345 365.33 314.175ZM380.969 304.763C381.186 304.876 381.186 305.103 380.915 305.273L374.942 308.902C374.67 309.015 374.29 309.072 374.073 308.902L368.317 305.443C368.1 305.33 368.154 305.103 368.371 304.933L374.399 301.304C374.616 301.191 374.996 301.134 375.267 301.304L380.969 304.763ZM377.114 299.66L383.087 296.031C383.358 295.917 383.738 295.917 383.955 296.031L397.856 304.423C398.073 304.536 398.073 304.763 397.802 304.933L391.829 308.562C391.557 308.675 391.177 308.732 390.96 308.562L377.059 300.17C376.842 300.057 376.842 299.83 377.114 299.66ZM357.728 311.85L363.43 315.309C363.701 315.422 363.647 315.649 363.376 315.819L357.403 319.448C357.185 319.561 356.751 319.618 356.534 319.448L350.832 315.989C350.615 315.876 350.615 315.649 350.887 315.479L356.86 311.85C357.131 311.737 357.511 311.737 357.728 311.85ZM291.863 351.54L297.618 354.999C297.835 355.112 297.836 355.339 297.564 355.509L291.591 359.138C291.32 359.251 290.939 359.308 290.722 359.138L284.966 355.679C284.749 355.566 284.804 355.339 285.021 355.169L290.994 351.54C291.265 351.427 291.645 351.427 291.863 351.54ZM367.72 315.649C367.502 315.536 367.557 315.309 367.774 315.139L373.801 311.51C374.018 311.397 374.399 311.34 374.67 311.51L380.372 314.969C380.589 315.082 380.589 315.309 380.317 315.479L374.344 319.108C374.073 319.221 373.693 319.278 373.475 319.108L367.72 315.649ZM300.605 346.267L306.306 349.726C306.578 349.839 306.523 350.066 306.306 350.236L300.279 353.865C300.062 353.978 299.627 354.035 299.41 353.865L293.709 350.406C293.492 350.293 293.492 350.066 293.763 349.896L299.736 346.267C300.008 346.154 300.388 346.097 300.605 346.267ZM225.454 401.436C225.236 401.266 225.236 401.039 225.508 400.926L231.481 397.297C231.752 397.127 232.132 397.127 232.35 397.24L238.106 400.699C238.323 400.869 238.268 401.096 238.051 401.209L232.024 404.838C231.807 405.008 231.427 405.008 231.155 404.895L225.454 401.436ZM221.924 393.725L227.626 397.184C227.843 397.297 227.843 397.524 227.571 397.694L221.598 401.323C221.327 401.436 220.947 401.436 220.73 401.323L214.974 397.864C214.756 397.751 214.811 397.524 215.028 397.354L221.055 393.725C221.273 393.612 221.653 393.555 221.924 393.725ZM239.952 399.622L234.25 396.163C233.979 395.993 234.033 395.766 234.305 395.596L240.278 392.024C240.495 391.854 240.929 391.854 241.146 391.967L246.848 395.426C247.065 395.596 247.065 395.823 246.794 395.936L240.821 399.565C240.549 399.735 240.169 399.735 239.952 399.622ZM248.694 394.349L242.993 390.89C242.721 390.72 242.775 390.493 243.047 390.323L249.02 386.751C249.291 386.581 249.671 386.581 249.889 386.694L255.59 390.153C255.807 390.323 255.807 390.55 255.536 390.663L249.563 394.292C249.291 394.462 248.911 394.462 248.694 394.349ZM257.436 389.076L251.735 385.617C251.518 385.447 251.518 385.22 251.789 385.05L257.762 381.478C258.034 381.308 258.414 381.308 258.631 381.421L264.332 384.88C264.604 385.05 264.55 385.277 264.278 385.39L258.305 389.019C258.088 389.189 257.654 389.189 257.436 389.076ZM230.666 388.452L236.368 391.911C236.585 392.024 236.585 392.251 236.314 392.421L230.341 396.05C230.069 396.163 229.689 396.163 229.472 396.05L223.77 392.591C223.499 392.478 223.553 392.251 223.77 392.081L229.798 388.452C230.015 388.338 230.449 388.282 230.666 388.452ZM239.409 383.179L245.11 386.638C245.327 386.751 245.327 386.978 245.056 387.148L239.083 390.777C238.811 390.89 238.431 390.89 238.214 390.777L232.513 387.318C232.241 387.204 232.295 386.978 232.567 386.808L238.54 383.179C238.757 383.065 239.191 383.009 239.409 383.179ZM274.378 362.086L280.134 365.545C280.351 365.659 280.297 365.885 280.079 366.055L274.052 369.628C273.835 369.798 273.455 369.798 273.183 369.684L267.482 366.226C267.265 366.112 267.265 365.885 267.536 365.715L273.509 362.086C273.781 361.973 274.161 361.916 274.378 362.086ZM265.636 367.36L271.391 370.818C271.609 370.932 271.554 371.158 271.337 371.329L265.31 374.901C265.093 375.071 264.713 375.071 264.441 374.957L258.74 371.499C258.522 371.385 258.522 371.158 258.794 370.988L264.767 367.36C265.038 367.246 265.418 367.189 265.636 367.36ZM283.12 356.813L288.876 360.272C289.093 360.385 289.039 360.612 288.822 360.782L282.849 364.354C282.577 364.524 282.197 364.525 281.98 364.411L276.224 360.952C276.007 360.839 276.007 360.612 276.278 360.442L282.251 356.813C282.523 356.7 282.903 356.643 283.12 356.813ZM248.151 377.906L253.853 381.364C254.124 381.478 254.07 381.705 253.798 381.875L247.825 385.447C247.554 385.617 247.174 385.617 246.956 385.504L241.255 382.045C241.038 381.931 241.038 381.705 241.309 381.535L247.282 377.906C247.554 377.792 247.934 377.736 248.151 377.906ZM256.893 372.633L262.595 376.091C262.866 376.205 262.812 376.432 262.541 376.602L256.568 380.23C256.35 380.344 255.916 380.344 255.699 380.23L249.997 376.772C249.78 376.658 249.78 376.431 250.052 376.261L256.025 372.633C256.296 372.519 256.676 372.463 256.893 372.633ZM243.97 407.05L238.268 403.591C238.051 403.421 238.051 403.194 238.323 403.024L244.296 399.452C244.567 399.282 244.947 399.282 245.165 399.395L250.92 402.854C251.138 403.024 251.083 403.251 250.866 403.364L244.839 406.993C244.621 407.163 244.241 407.163 243.97 407.05ZM198.684 405.235L192.711 408.864C192.439 409.034 192.059 409.034 191.842 408.864L186.086 405.405C185.869 405.292 185.923 405.065 186.14 404.895L192.113 401.323C192.385 401.153 192.765 401.153 192.982 401.266L198.738 404.725C198.955 404.838 198.955 405.065 198.684 405.235ZM210.087 408.24L200.856 413.797C200.638 413.967 200.258 413.967 199.987 413.797L194.285 410.338C194.068 410.225 194.068 409.998 194.34 409.828L203.516 404.271C203.788 404.158 204.168 404.101 204.385 404.271L210.141 407.73C210.358 407.843 210.358 408.07 210.087 408.24ZM190.159 398.431L182.774 402.854C182.502 403.024 182.122 403.024 181.905 402.91L176.149 399.452C175.932 399.338 175.986 399.055 176.203 398.941L183.588 394.462C183.86 394.349 184.24 394.292 184.457 394.462L190.159 397.921C190.43 398.034 190.376 398.261 190.159 398.431ZM190.104 391.06C189.887 390.89 189.887 390.663 190.159 390.55L196.132 386.921C196.403 386.751 196.783 386.751 197 386.864L202.756 390.323C202.973 390.493 202.919 390.72 202.702 390.833L196.729 394.462C196.457 394.632 196.077 394.632 195.86 394.519L190.104 391.06ZM220.512 411.756L209.001 418.73C208.783 418.843 208.403 418.9 208.132 418.73L202.43 415.271C202.213 415.158 202.213 414.931 202.485 414.761L213.996 407.843C214.268 407.673 214.648 407.673 214.865 407.787L220.567 411.245C220.838 411.359 220.784 411.642 220.512 411.756V411.756ZM224.585 419.183L217.2 423.663C216.929 423.776 216.548 423.833 216.331 423.663L210.63 420.204C210.358 420.09 210.413 419.864 210.684 419.694L218.015 415.271C218.286 415.101 218.666 415.101 218.883 415.214L224.639 418.673C224.856 418.786 224.802 419.07 224.585 419.183ZM255.101 351.824C254.884 351.71 254.939 351.483 255.156 351.313L261.129 347.685C261.4 347.571 261.78 347.515 261.998 347.685L267.753 351.143C267.971 351.257 267.971 351.484 267.699 351.654L261.726 355.226C261.455 355.396 261.074 355.396 260.857 355.282L255.101 351.824ZM237.617 362.37C237.345 362.256 237.4 362.03 237.617 361.86L243.644 358.231C243.861 358.061 244.296 358.061 244.513 358.231L250.214 361.69C250.432 361.803 250.432 362.03 250.16 362.2L244.187 365.772C243.916 365.942 243.536 365.942 243.318 365.829L237.617 362.37ZM198.847 385.73C198.575 385.617 198.629 385.39 198.847 385.22L204.874 381.648C205.091 381.478 205.525 381.478 205.743 381.591L211.444 385.05C211.661 385.163 211.661 385.39 211.39 385.56L205.417 389.189C205.145 389.302 204.765 389.359 204.548 389.189L198.847 385.73ZM246.413 357.097C246.142 356.927 246.196 356.7 246.413 356.587L252.441 352.958C252.658 352.788 253.092 352.788 253.31 352.901L259.011 356.36C259.228 356.53 259.228 356.757 258.957 356.87L252.984 360.499C252.712 360.669 252.332 360.669 252.115 360.556L246.413 357.097ZM228.929 367.643C228.712 367.473 228.712 367.246 228.983 367.076L234.956 363.504C235.228 363.334 235.608 363.334 235.825 363.447L241.526 366.906C241.798 367.076 241.744 367.303 241.472 367.416L235.499 371.045C235.282 371.215 234.848 371.215 234.63 371.102L228.929 367.643ZM234.739 422.472C234.956 422.585 234.902 422.812 234.685 422.982L225.454 428.539C225.182 428.709 224.802 428.709 224.585 428.596L218.883 425.137C218.612 424.967 218.666 424.74 218.883 424.57L228.114 419.07C228.386 418.9 228.766 418.9 228.983 419.013L234.739 422.472ZM216.44 375.184C216.168 375.071 216.223 374.844 216.494 374.674L222.467 371.045C222.684 370.932 223.119 370.875 223.336 371.045L229.037 374.504C229.255 374.617 229.255 374.844 228.983 375.014L223.01 378.643C222.739 378.756 222.359 378.756 222.141 378.643L216.44 375.184ZM207.697 380.457C207.48 380.344 207.48 380.117 207.752 379.947L213.725 376.318C213.996 376.148 214.376 376.148 214.594 376.318L220.349 379.777C220.567 379.89 220.512 380.117 220.295 380.287L214.268 383.859C214.051 384.029 213.671 384.029 213.399 383.916L207.697 380.457ZM396.824 324.778C397.096 324.891 397.042 325.118 396.77 325.288L382.055 334.19C381.783 334.303 381.403 334.36 381.186 334.19L375.485 330.731C375.267 330.618 375.267 330.391 375.539 330.221L390.254 321.319C390.526 321.206 390.906 321.149 391.123 321.319L396.824 324.778ZM377.494 336.401C377.711 336.571 377.711 336.798 377.439 336.968L371.466 340.54C371.195 340.71 370.815 340.711 370.598 340.597L364.842 337.138C364.625 337.025 364.679 336.742 364.896 336.628L370.869 332.999C371.141 332.829 371.521 332.829 371.738 332.999L377.494 336.401ZM252.875 401.663L247.119 398.204C246.902 398.091 246.956 397.864 247.174 397.694L253.147 394.065C253.418 393.952 253.798 393.895 254.015 394.065L259.771 397.524C259.988 397.637 259.988 397.864 259.717 398.034L253.744 401.606C253.472 401.776 253.092 401.776 252.875 401.663ZM360.009 346.948C360.226 347.061 360.226 347.288 359.955 347.458L353.982 351.03C353.71 351.2 353.33 351.2 353.113 351.087L347.411 347.628C347.14 347.514 347.194 347.288 347.466 347.118L353.439 343.489C353.656 343.319 354.09 343.319 354.308 343.489L360.009 346.948ZM405.567 319.448C405.784 319.561 405.784 319.845 405.512 319.958L399.539 323.587C399.268 323.757 398.888 323.757 398.671 323.587L392.969 320.185C392.698 320.015 392.752 319.788 392.969 319.618L398.996 316.046C399.214 315.876 399.648 315.876 399.865 315.989L405.567 319.448ZM414.255 314.685L408.282 318.314C408.01 318.484 407.63 318.484 407.413 318.371L393.512 309.979C393.241 309.809 393.295 309.582 393.512 309.412L399.539 305.84C399.757 305.67 400.191 305.67 400.408 305.783L414.309 314.175C414.526 314.345 414.526 314.572 414.255 314.685ZM327.266 366.622C327.538 366.792 327.483 367.019 327.212 367.189L319.881 371.612C319.61 371.782 319.23 371.782 319.013 371.612L313.257 368.21C313.04 368.04 313.094 367.813 313.311 367.643L320.696 363.22C320.967 363.05 321.347 363.05 321.565 363.164L327.266 366.622ZM349.366 353.298C349.583 353.468 349.583 353.695 349.312 353.865L340.081 359.422C339.864 359.535 339.484 359.592 339.212 359.422L333.511 355.963C333.293 355.849 333.293 355.623 333.565 355.453L342.742 349.896C343.013 349.726 343.393 349.726 343.61 349.896L349.366 353.298ZM266.287 383.632L260.531 380.23C260.314 380.06 260.369 379.833 260.586 379.663L266.559 376.091C266.83 375.921 267.21 375.921 267.428 376.035L273.183 379.493C273.401 379.607 273.401 379.89 273.129 380.004L267.156 383.632C266.885 383.802 266.504 383.802 266.287 383.632ZM254.993 410.168C255.21 410.281 255.21 410.565 254.939 410.678L247.608 415.158C247.337 415.271 246.956 415.328 246.739 415.158L240.983 411.699C240.766 411.585 240.82 411.359 241.038 411.189L248.423 406.766C248.694 406.596 249.074 406.596 249.291 406.709L254.993 410.168ZM317.112 372.689C317.384 372.859 317.329 373.086 317.112 373.256L309.727 377.679C309.456 377.849 309.076 377.849 308.858 377.679L303.103 374.277C302.885 374.107 302.94 373.88 303.157 373.71L310.542 369.287C310.813 369.117 311.193 369.117 311.411 369.231L317.112 372.689ZM244.839 416.292C245.056 416.405 245.056 416.688 244.784 416.802L237.4 421.281C237.182 421.395 236.748 421.451 236.531 421.281L230.829 417.823C230.612 417.709 230.612 417.482 230.884 417.312L238.214 412.89C238.486 412.72 238.866 412.719 239.083 412.833L244.839 416.292ZM337.42 360.499C337.637 360.669 337.583 360.896 337.366 361.009L329.981 365.488C329.71 365.602 329.329 365.658 329.112 365.488L323.411 362.03C323.139 361.916 323.194 361.689 323.465 361.519L330.796 357.097C331.067 356.927 331.447 356.927 331.664 357.04L337.42 360.499ZM368.751 341.618C368.968 341.788 368.914 342.015 368.697 342.185L362.724 345.757C362.453 345.927 362.072 345.927 361.855 345.814L356.099 342.355C355.882 342.241 355.882 341.958 356.154 341.845L362.127 338.216C362.398 338.046 362.778 338.046 362.996 338.216L368.751 341.618ZM381.783 323.871L376.028 320.469C375.81 320.299 375.81 320.072 376.082 319.902L382.055 316.33C382.326 316.159 382.706 316.159 382.924 316.273L388.679 319.732C388.897 319.845 388.897 320.128 388.625 320.242L382.652 323.871C382.381 324.041 382.001 324.041 381.783 323.871ZM346.054 325.685L340.352 322.226C340.135 322.113 340.135 321.886 340.407 321.716L346.38 318.087C346.651 317.974 347.031 317.917 347.249 318.087L352.95 321.546C353.222 321.659 353.167 321.886 352.95 322.056L346.923 325.685C346.706 325.798 346.271 325.798 346.054 325.685ZM322.814 359.422L317.112 355.963C316.895 355.849 316.895 355.623 317.166 355.453L334.651 344.906C334.922 344.736 335.303 344.736 335.52 344.85L341.276 348.308C341.493 348.478 341.438 348.705 341.221 348.819L323.682 359.365C323.465 359.535 323.085 359.535 322.814 359.422V359.422ZM367.285 325.742C367.068 325.572 367.068 325.345 367.34 325.175L373.313 321.603C373.584 321.433 373.964 321.432 374.181 321.546L379.937 325.005C380.154 325.118 380.1 325.401 379.883 325.515L373.91 329.144C373.638 329.314 373.258 329.314 373.041 329.144L367.285 325.742ZM364.787 324.268L359.086 320.809C358.869 320.695 358.869 320.469 359.14 320.299L365.113 316.726C365.385 316.556 365.765 316.556 365.982 316.67L371.738 320.128C371.955 320.242 371.901 320.469 371.684 320.639L365.656 324.268C365.439 324.438 365.059 324.438 364.787 324.268ZM314.071 364.751L308.315 361.293C308.098 361.179 308.153 360.896 308.37 360.782L314.343 357.154C314.614 356.983 314.994 356.983 315.266 357.154L320.967 360.556C321.184 360.726 321.185 360.952 320.913 361.123L314.94 364.695C314.669 364.865 314.288 364.865 314.071 364.751ZM347.9 337.422C347.683 337.308 347.737 337.082 347.954 336.912L353.982 333.283C354.199 333.113 354.579 333.113 354.851 333.283L360.552 336.685C360.769 336.855 360.769 337.082 360.498 337.252L354.525 340.824C354.253 340.994 353.873 340.994 353.656 340.881L347.9 337.422ZM270.305 391.117L264.55 387.658C264.332 387.545 264.387 387.261 264.604 387.148L270.577 383.519C270.848 383.349 271.229 383.349 271.446 383.519L277.202 386.921C277.419 387.091 277.419 387.318 277.147 387.488L271.174 391.06C270.903 391.23 270.523 391.23 270.305 391.117ZM279.048 385.844L273.292 382.385C273.075 382.272 273.129 381.988 273.346 381.875L279.374 378.246C279.591 378.076 279.971 378.076 280.242 378.189L285.944 381.648C286.161 381.818 286.161 382.045 285.89 382.215L279.917 385.787C279.645 385.957 279.265 385.957 279.048 385.844ZM261.563 396.39L255.807 392.931C255.59 392.818 255.59 392.534 255.862 392.421L261.835 388.792C262.106 388.622 262.486 388.622 262.703 388.792L268.459 392.194C268.676 392.364 268.676 392.591 268.405 392.761L262.432 396.333C262.16 396.503 261.78 396.503 261.563 396.39ZM296.532 375.298L290.831 371.839C290.559 371.725 290.614 371.442 290.885 371.329L296.858 367.7C297.075 367.53 297.51 367.53 297.727 367.643L303.428 371.102C303.646 371.272 303.646 371.499 303.374 371.669L297.401 375.241C297.13 375.411 296.749 375.411 296.532 375.298ZM287.79 380.571L282.034 377.112C281.817 376.998 281.871 376.715 282.089 376.602L288.116 372.973C288.333 372.803 288.767 372.803 288.985 372.916L294.686 376.375C294.903 376.545 294.903 376.772 294.632 376.942L288.659 380.514C288.387 380.684 288.007 380.684 287.79 380.571ZM305.275 370.024L299.573 366.566C299.356 366.452 299.356 366.169 299.627 366.055L305.6 362.427C305.872 362.257 306.252 362.256 306.469 362.37L312.171 365.829C312.388 365.999 312.388 366.226 312.116 366.396L306.143 369.968C305.872 370.138 305.492 370.138 305.275 370.024ZM352.353 295.691C352.136 295.577 352.136 295.35 352.407 295.18L358.38 291.552C358.652 291.438 359.032 291.382 359.249 291.552L360.769 292.459C361.041 292.572 360.986 292.799 360.715 292.969L354.742 296.598C354.525 296.768 354.09 296.768 353.873 296.598L352.353 295.691ZM304.677 321.943C304.46 321.773 304.46 321.546 304.732 321.376L310.705 317.804C310.976 317.634 311.356 317.634 311.573 317.747L317.329 321.206C317.546 321.376 317.546 321.603 317.275 321.716L311.302 325.345C311.03 325.515 310.65 325.515 310.433 325.402L304.677 321.943ZM322.162 311.397C321.945 311.227 321.945 311 322.216 310.83L328.189 307.258C328.461 307.087 328.841 307.087 329.058 307.201L334.76 310.66C335.031 310.773 334.977 311.056 334.705 311.17L328.732 314.799C328.515 314.969 328.081 314.969 327.863 314.799L322.162 311.397ZM293.98 328.407C293.763 328.293 293.817 328.01 294.035 327.896L300.062 324.268C300.279 324.097 300.659 324.097 300.931 324.268L306.632 327.67C306.849 327.84 306.849 328.066 306.578 328.237L300.605 331.809C300.333 331.979 299.953 331.979 299.736 331.865L293.98 328.407ZM313.42 316.67C313.148 316.556 313.202 316.329 313.474 316.159L319.447 312.531C319.664 312.417 320.099 312.361 320.316 312.531L326.017 315.989C326.234 316.103 326.234 316.33 325.963 316.5L319.99 320.128C319.718 320.242 319.338 320.298 319.121 320.128L313.42 316.67ZM276.496 338.953C276.278 338.783 276.278 338.556 276.55 338.443L282.523 334.814C282.794 334.644 283.175 334.644 283.392 334.757L289.148 338.216C289.365 338.386 289.31 338.613 289.093 338.726L283.12 342.355C282.849 342.525 282.469 342.525 282.251 342.412L276.496 338.953ZM285.238 333.68C284.966 333.51 285.021 333.283 285.292 333.113L291.265 329.541C291.482 329.371 291.917 329.37 292.134 329.484L297.836 332.943C298.053 333.056 298.053 333.339 297.781 333.453L291.808 337.082C291.537 337.252 291.157 337.252 290.939 337.138L285.238 333.68ZM334.868 306.294C334.651 306.124 334.651 305.897 334.922 305.727L340.895 302.155C341.167 301.984 341.547 301.984 341.764 302.098L343.285 303.005C343.502 303.175 343.502 303.402 343.23 303.572L337.257 307.144C336.986 307.314 336.606 307.314 336.389 307.201L334.868 306.294ZM361.095 290.474C360.878 290.304 360.878 290.077 361.149 289.964L367.122 286.335C367.394 286.165 367.774 286.165 367.991 286.278L369.512 287.242C369.729 287.356 369.729 287.583 369.457 287.753L363.484 291.382C363.213 291.495 362.833 291.495 362.615 291.382L361.095 290.474ZM368.914 295.18C368.697 295.067 368.751 294.84 368.969 294.67L374.942 291.041C375.213 290.928 375.593 290.871 375.81 291.041L381.566 294.5C381.783 294.613 381.783 294.84 381.512 295.01L375.539 298.639C375.267 298.753 374.887 298.809 374.67 298.639L368.914 295.18ZM390.417 318.711L384.716 315.252C384.444 315.139 384.498 314.912 384.716 314.742L390.743 311.113C390.96 311 391.394 310.943 391.612 311.113L397.313 314.572C397.53 314.685 397.53 314.912 397.259 315.082L391.286 318.654C391.014 318.824 390.634 318.824 390.417 318.711ZM343.556 301.021C343.339 300.907 343.393 300.624 343.61 300.51L349.638 296.881C349.855 296.711 350.235 296.711 350.507 296.881L352.027 297.789C352.244 297.902 352.19 298.129 351.973 298.299L345.945 301.928C345.728 302.041 345.348 302.098 345.077 301.928L343.556 301.021ZM267.753 344.226C267.482 344.112 267.536 343.829 267.753 343.716L273.781 340.087C273.998 339.917 274.432 339.917 274.649 340.087L280.351 343.489C280.568 343.659 280.568 343.886 280.297 344.056L274.324 347.628C274.052 347.798 273.672 347.798 273.455 347.685L267.753 344.226Z" fill="#455A64"/>
<path d="M358.489 359.195L392.317 379.55L391.123 380.287L333.13 415.214L300.55 395.596L299.302 394.859L358.489 359.195Z" fill="#37474F"/>
<path d="M358.489 360.612L391.123 380.287L333.13 415.214L300.55 395.596L358.489 360.612Z" fill="#263238"/>
<path d="M116.256 255.547L114.627 256.511L101.378 248.516C100.075 247.722 99.912 246.248 100.998 245.171L103.441 242.846L100.183 235.872C99.8577 235.135 99.8577 234.625 100.129 234.454C100.346 234.284 101.432 233.661 101.758 233.491C101.975 233.32 102.41 233.434 103.007 233.774L116.256 241.769V255.547Z" fill="#27DEBF"/>
<path opacity="0.5" d="M116.256 255.547L114.627 256.511L101.378 248.516C100.075 247.722 99.912 246.248 100.998 245.171L103.441 242.846L100.183 235.872C99.8577 235.135 99.8577 234.625 100.129 234.454C100.346 234.284 101.432 233.661 101.758 233.491C101.975 233.32 102.41 233.434 103.007 233.774L116.256 241.769V255.547Z" fill="white"/>
<path d="M114.627 242.733V256.511L101.378 248.516C100.075 247.722 99.912 246.248 100.998 245.171L103.442 242.846L100.184 235.872C99.5319 234.454 100.075 233.944 101.378 234.738L114.627 242.733Z" fill="#25193D"/>
<path d="M116.202 285.881C115.333 285.881 114.627 285.144 114.627 284.237V238.197C114.627 237.289 115.333 236.552 116.202 236.552C117.071 236.552 117.777 237.289 117.777 238.197V284.237C117.777 285.144 117.071 285.881 116.202 285.881Z" fill="#455A64"/>
<path d="M59.0784 408.523V405.688H59.73C60.5445 403.987 62.0106 402.4 64.1826 401.096C71.0787 396.957 82.2102 396.957 89.052 401.096C91.224 402.4 92.7444 403.987 93.5046 405.688H94.2105V408.467C94.2648 411.188 92.5272 413.967 89.052 416.065C82.2102 420.204 71.0787 420.204 64.1826 416.065C60.7617 414.023 59.0241 411.245 59.0784 408.523Z" fill="#263238"/>
<path d="M89.052 413.173C82.2102 417.312 71.0787 417.312 64.1826 413.173C57.3408 409.034 57.3408 402.343 64.1826 398.204C71.0787 394.065 82.2102 394.065 89.052 398.204C95.8938 402.343 95.8938 409.034 89.052 413.173Z" fill="#455A64"/>
<path d="M81.1785 305.896L81.1242 404.441C81.1242 405.121 80.6898 405.802 79.821 406.369C78.0834 407.389 75.2055 407.389 73.4136 406.369C72.5448 405.802 72.1104 405.121 72.1104 404.441V305.896H81.1785Z" fill="#37474F"/>
<path d="M81.1785 323.303V332.545L72.1104 327.102V317.86L81.1785 323.303Z" fill="#263238"/>
<path d="M104.908 297.108L121.632 307.2C121.523 307.314 121.415 307.484 121.306 307.541L92.0385 325.174C91.8213 325.345 91.6041 325.231 91.6041 324.891V302.891C91.6041 299.092 92.4729 294.84 94.0476 290.587L104.908 297.108Z" fill="#070A40"/>
<path opacity="0.4" d="M104.908 297.108L121.632 307.2C121.523 307.314 121.415 307.484 121.306 307.541L92.0385 325.174C91.8213 325.345 91.6041 325.231 91.6041 324.891V302.891C91.6041 299.092 92.4729 294.84 94.0476 290.587L104.908 297.108Z" fill="#070A40"/>
<path d="M121.741 282.649V307.257L94.0475 290.587C94.0837 290.512 94.1199 290.436 94.1561 290.361C97.0883 282.593 102.138 276.016 107.568 272.727C109.795 271.423 111.912 270.742 113.813 270.742C118.7 270.742 121.741 275.278 121.741 282.649V282.649Z" fill="#070A40"/>
<path opacity="0.3" d="M121.741 282.649V307.257L94.0475 290.587C94.0837 290.512 94.1199 290.436 94.1561 290.361C97.0883 282.593 102.138 276.016 107.568 272.727C109.795 271.423 111.912 270.742 113.813 270.742C118.7 270.742 121.741 275.278 121.741 282.649V282.649Z" fill="#070A40"/>
<path d="M151.823 334.757C151.823 338.386 149.651 341.958 145.198 344.623C140.908 347.231 135.261 348.535 129.451 348.592C122.718 348.705 115.822 347.117 110.5 343.942L90.681 332.035C90.3009 331.752 90.0837 331.412 90.0837 331.128V328.917C90.4095 329.427 90.7353 329.711 91.0611 329.994L121.306 311.737C122.175 311.283 123.478 311.283 124.293 311.737L144.112 323.7C147.642 325.855 149.977 328.406 151.117 331.128C151.334 331.695 151.515 332.281 151.66 332.886V332.602H151.877V334.757H151.823Z" fill="#070A40"/>
<path opacity="0.4" d="M151.823 334.757C151.823 338.386 149.651 341.958 145.198 344.623C140.908 347.231 135.261 348.535 129.451 348.592C122.718 348.705 115.822 347.117 110.5 343.942L90.681 332.035C90.3009 331.752 90.0837 331.412 90.0837 331.128V328.917C90.4095 329.427 90.7353 329.711 91.0611 329.994L121.306 311.737C122.175 311.283 123.478 311.283 124.293 311.737L144.112 323.7C147.642 325.855 149.977 328.406 151.117 331.128C151.334 331.695 151.515 332.281 151.66 332.886V332.602H151.877V334.757H151.823Z" fill="#25193D"/>
<path d="M151.768 333.68C151.388 336.911 149.216 339.973 145.198 342.411C140.908 345.02 135.261 346.324 129.451 346.38C122.718 346.494 115.822 344.906 110.5 341.731L91.0611 329.994L121.306 311.737C122.175 311.283 123.478 311.283 124.293 311.737L144.112 323.7C147.642 325.855 149.977 328.406 151.117 331.128C151.443 331.96 151.66 332.81 151.768 333.68V333.68Z" fill="#25193D"/>
<path opacity="0.2" d="M150.682 333.112C150.302 336.344 148.13 339.406 144.112 341.844C139.822 344.452 134.175 345.757 128.365 345.813C121.632 345.927 114.736 344.339 109.414 341.164L89.9751 329.427L120.22 311.17C121.089 310.716 122.392 310.716 123.207 311.17L143.026 323.133C146.556 325.288 148.891 327.839 150.031 330.561C150.357 331.393 150.574 332.243 150.682 333.112V333.112Z" fill="#F2E5BD"/>
<path d="M151.769 333.679C151.66 332.81 151.443 331.96 151.117 331.128C149.977 328.406 147.642 325.855 144.112 323.7L124.293 311.737C123.478 311.283 122.175 311.283 121.306 311.737L91.0611 329.994L90.681 329.824C89.8665 329.314 89.8665 328.52 90.681 328.009L121.306 309.525C122.175 309.015 123.478 309.015 124.293 309.525L144.112 321.489C147.642 323.644 149.977 326.195 151.117 328.917C151.479 329.786 151.714 330.693 151.823 331.638C151.895 332.319 151.877 332.999 151.769 333.679V333.679Z" fill="#070A40"/>
<path opacity="0.3" d="M151.769 333.679C151.66 332.81 151.443 331.96 151.117 331.128C149.977 328.406 147.642 325.855 144.112 323.7L124.293 311.737C123.478 311.283 122.175 311.283 121.306 311.737L91.0611 329.994L90.681 329.824C89.8665 329.314 89.8665 328.52 90.681 328.009L121.306 309.525C122.175 309.015 123.478 309.015 124.293 309.525L144.112 321.489C147.642 323.644 149.977 326.195 151.117 328.917C151.479 329.786 151.714 330.693 151.823 331.638C151.895 332.319 151.877 332.999 151.769 333.679V333.679Z" fill="#070A40"/>
<path d="M92.0385 325.174L121.306 307.541L122.012 309.242L91.3869 327.669L92.0385 325.174Z" fill="#25193D"/>
<path opacity="0.1" d="M92.0385 325.174L121.306 307.541L122.012 309.242L91.3869 327.669L92.0385 325.174Z" fill="#25193D"/>
<path d="M119.08 310.999C119.08 311.51 118.754 312.077 118.32 312.36L117.505 312.814C117.125 313.097 116.474 313.097 116.039 312.814L78.7893 290.361C78.3549 290.134 78.0291 289.51 78.0291 289.057V259.232C78.0291 258.722 78.3549 258.155 78.7893 257.872L79.6038 257.418C79.9839 257.134 80.6355 257.134 81.0699 257.418L118.32 279.871C118.754 280.098 119.08 280.722 119.08 281.175V310.999Z" fill="#F5F5F5"/>
<path d="M118.863 280.438L116.799 281.686L78.2463 258.439C78.4092 258.212 78.5721 257.985 78.7893 257.872L79.6038 257.418C79.9839 257.134 80.6355 257.134 81.0699 257.418L118.32 279.871C118.537 279.985 118.7 280.211 118.863 280.438V280.438Z" fill="#E0E0E0"/>
<path d="M116.799 281.685L116.419 281.912C116.636 282.026 116.799 282.252 116.799 282.536V312.417C116.799 312.644 116.691 312.814 116.582 312.87C116.474 312.946 116.347 312.965 116.202 312.927C116.166 312.889 116.112 312.852 116.039 312.814L78.7893 290.361C78.3549 290.134 78.0291 289.51 78.0291 289.056V259.232C78.0291 258.949 78.1377 258.665 78.2463 258.438L116.799 281.685Z" fill="#EBEBEB"/>
<path opacity="0.2" d="M102.03 288.49L116.799 311.907V312.417C116.799 312.644 116.691 312.814 116.582 312.871L101.921 288.546L99.6405 289.567C98.3373 290.191 96.8712 289.68 96.111 288.433L92.9073 283.046L78.3006 289.794C78.1377 289.567 78.0291 289.283 78.0291 289.057L92.853 282.99L78.1377 258.382L93.396 282.82L96.1653 287.299C96.9255 288.433 98.283 288.886 99.5319 288.433L116.799 281.686L102.03 288.49Z" fill="black"/>
<path d="M110.229 316.329C110.229 316.783 109.903 317.35 109.523 317.633L108.709 318.087C108.274 318.371 107.623 318.371 107.242 318.087L69.9384 295.634C69.5583 295.407 69.2325 294.783 69.2325 294.33V264.506C69.2325 263.995 69.5583 263.428 69.9384 263.145L70.7529 262.691C71.1873 262.408 71.8389 262.408 72.219 262.691L109.523 285.144C109.903 285.371 110.229 285.995 110.229 286.448V316.329Z" fill="#F5F5F5"/>
<path d="M110.012 285.711L107.948 286.959L69.4497 263.712C69.5583 263.485 69.7755 263.315 69.9384 263.145L70.7529 262.691C71.1873 262.408 71.8389 262.408 72.219 262.691L109.523 285.144C109.686 285.258 109.903 285.485 110.012 285.711Z" fill="#E0E0E0"/>
<path d="M107.785 318.257C107.822 318.295 107.876 318.314 107.948 318.314H107.894C107.84 318.314 107.84 318.314 107.785 318.257V318.257Z" fill="#27DEBF"/>
<path d="M107.948 286.959L107.568 287.185C107.785 287.299 107.948 287.526 107.948 287.866V317.69C107.948 317.917 107.894 318.087 107.731 318.2C107.623 318.238 107.514 318.238 107.405 318.2C107.333 318.163 107.279 318.144 107.242 318.144L69.9384 295.634C69.5583 295.407 69.2325 294.783 69.2325 294.33V264.505C69.2325 264.222 69.2868 263.995 69.4497 263.712L107.948 286.959Z" fill="#EBEBEB"/>
<path opacity="0.2" d="M93.1788 293.763L107.948 317.18V317.69C107.948 317.917 107.894 318.087 107.731 318.2L93.1245 293.819L90.7896 294.84C89.5407 295.464 88.0203 294.953 87.3144 293.763L84.0564 288.376L69.4497 295.124C69.3411 294.84 69.2325 294.557 69.2325 294.33L84.0564 288.263L69.2868 263.655L84.5994 288.093L87.3687 292.572C88.0746 293.706 89.4864 294.16 90.681 293.706L107.948 286.959L93.1788 293.763Z" fill="black"/>
<path d="M101.432 321.602C101.432 322.056 101.107 322.68 100.672 322.906L99.8577 323.417C99.4776 323.643 98.826 323.643 98.3916 323.417L61.1418 300.907C60.7074 300.68 60.3816 300.113 60.3816 299.603V269.778C60.3816 269.268 60.7074 268.701 61.1418 268.474L61.9563 267.964C62.3364 267.737 62.988 267.737 63.4224 267.964L100.672 290.417C101.107 290.644 101.432 291.268 101.432 291.721V321.602Z" fill="#F5F5F5"/>
<path d="M101.215 290.984L99.1518 292.232L60.5988 269.041C60.7617 268.758 60.9246 268.588 61.1418 268.474L61.9563 267.964C62.3364 267.737 62.988 267.737 63.4224 267.964L100.672 290.417C100.889 290.531 101.052 290.757 101.215 290.984V290.984Z" fill="#E0E0E0"/>
<path d="M99.1518 292.232L98.7717 292.458C98.9889 292.572 99.1518 292.799 99.1518 293.139V322.963C99.1518 323.19 99.0432 323.36 98.9346 323.473C98.826 323.511 98.6993 323.511 98.5545 323.473C98.5183 323.435 98.464 323.417 98.3916 323.417L61.1418 300.907C60.7074 300.68 60.3816 300.113 60.3816 299.603V269.778C60.3816 269.495 60.4902 269.268 60.5988 269.041L99.1518 292.232Z" fill="#EBEBEB"/>
<path opacity="0.2" d="M84.3822 299.036L99.1518 322.453V322.963C99.1518 323.19 99.0432 323.36 98.9346 323.473L84.2736 299.092L81.993 300.17C80.6898 300.737 79.2237 300.226 78.4635 299.036L75.2598 293.649L60.6531 300.396C60.4902 300.113 60.3816 299.886 60.3816 299.603L75.2055 293.536L60.4902 268.928L75.7485 293.422L78.5178 297.845C79.278 298.979 80.6355 299.433 81.8844 298.979L99.1518 292.232L84.3822 299.036Z" fill="black"/>
<path d="M117.885 269.949C114.899 268.304 110.989 268.588 106.699 271.196C101.867 274.088 97.5228 279.361 94.4277 285.371C93.7218 286.789 93.1245 288.206 92.5272 289.68C90.8439 294.046 89.8665 298.639 89.8665 302.891V328.066C89.3235 328.066 88.7805 327.896 88.4004 327.669L45.5034 301.814C44.6889 301.304 44.0373 300.113 44.0373 299.092V275.222C44.0373 263.315 51.5307 249.083 60.816 243.526C65.2143 240.862 69.2325 240.635 72.219 242.392L117.885 269.949Z" fill="#070A40"/>
<path opacity="0.2" d="M117.885 269.949C114.899 268.304 110.989 268.588 106.699 271.196C101.867 274.088 97.5228 279.361 94.4277 285.371C93.7218 286.789 93.1245 288.206 92.5272 289.68C90.8439 294.046 89.8665 298.639 89.8665 302.891V328.066C89.3235 328.066 88.7805 327.896 88.4004 327.669L45.5034 301.814C44.6889 301.304 44.0373 300.113 44.0373 299.092V275.222C44.0373 263.315 51.5307 249.083 60.816 243.526C65.2143 240.862 69.2325 240.635 72.219 242.392L117.885 269.949Z" fill="#070A40"/>
<path opacity="0.1" d="M44.0373 299.092V275.222C44.0373 272.954 44.3088 270.572 44.7975 268.191L90.681 295.861C90.138 298.242 89.8665 300.623 89.8665 302.891V328.066C89.3235 328.066 88.7805 327.896 88.4004 327.669L45.5034 301.814C44.6889 301.304 44.0373 300.113 44.0373 299.092V299.092Z" fill="black"/>
<path d="M94.4277 285.371C97.5228 279.361 101.867 274.088 106.699 271.196C102.953 272.614 89.3235 284.407 89.3235 302.891C89.3235 318.484 89.3235 326.535 89.3235 328.009C89.5045 328.047 89.6855 328.066 89.8665 328.066V302.891C89.8665 298.639 90.8439 294.046 92.5272 289.68C93.1245 288.206 93.7218 286.789 94.4277 285.371Z" fill="#27DEBF"/>
<path opacity="0.4" d="M94.4277 285.371C97.5228 279.361 101.867 274.088 106.699 271.196C102.953 272.614 89.3235 284.407 89.3235 302.891C89.3235 318.484 89.3235 326.535 89.3235 328.009C89.5045 328.047 89.6855 328.066 89.8665 328.066V302.891C89.8665 298.639 90.8439 294.046 92.5272 289.68C93.1245 288.206 93.7218 286.789 94.4277 285.371Z" fill="#25193D"/>
<path d="M91.3869 327.669C91.0068 327.896 90.5724 328.01 90.138 328.066C90.0656 328.066 89.9751 328.066 89.8665 328.066V302.891C89.8665 298.639 90.8439 294.046 92.5272 289.68C93.1064 288.206 93.7399 286.77 94.4277 285.371C97.5228 279.361 101.867 274.088 106.7 271.196C110.989 268.588 114.899 268.304 117.885 269.949C121.306 271.82 123.478 276.242 123.478 282.65V306.52C123.478 307.201 123.207 307.938 122.772 308.505C122.591 308.769 122.374 308.977 122.121 309.128C122.085 309.166 122.048 309.204 122.012 309.242L121.306 307.541C121.578 307.427 121.741 307.031 121.741 306.747V282.65C121.741 277.15 120.057 273.181 117.125 271.536C116.148 271.026 115.062 270.743 113.813 270.743C111.912 270.743 109.795 271.423 107.568 272.727C103.224 275.335 99.1518 280.041 96.1653 285.825C95.4051 287.261 94.7354 288.773 94.1562 290.361C94.12 290.436 94.0838 290.512 94.0476 290.588C92.4729 294.84 91.6041 299.093 91.6041 302.891V324.948C91.6041 325.231 91.8213 325.345 92.0385 325.175L91.3869 327.669Z" fill="#25193D"/>
<path opacity="0.1" d="M91.3869 327.669C91.0068 327.896 90.5724 328.01 90.138 328.066C90.0656 328.066 89.9751 328.066 89.8665 328.066V302.891C89.8665 298.639 90.8439 294.046 92.5272 289.68C93.1064 288.206 93.7399 286.77 94.4277 285.371C97.5228 279.361 101.867 274.088 106.7 271.196C110.989 268.588 114.899 268.304 117.885 269.949C121.306 271.82 123.478 276.242 123.478 282.65V306.52C123.478 307.201 123.207 307.938 122.772 308.505C122.591 308.769 122.374 308.977 122.121 309.128C122.085 309.166 122.048 309.204 122.012 309.242L121.306 307.541C121.578 307.427 121.741 307.031 121.741 306.747V282.65C121.741 277.15 120.057 273.181 117.125 271.536C116.148 271.026 115.062 270.743 113.813 270.743C111.912 270.743 109.795 271.423 107.568 272.727C103.224 275.335 99.1518 280.041 96.1653 285.825C95.4051 287.261 94.7354 288.773 94.1562 290.361C94.12 290.436 94.0838 290.512 94.0476 290.588C92.4729 294.84 91.6041 299.093 91.6041 302.891V324.948C91.6041 325.231 91.8213 325.345 92.0385 325.175L91.3869 327.669Z" fill="black"/>
<path d="M194.34 260.707C194.34 258.779 195.589 256.511 197.163 255.604L336.334 171.688C337.909 170.724 340.407 170.724 341.981 171.688L345.185 173.559C346.706 174.523 348.009 176.791 348.009 178.662V294.216C348.009 296.087 346.706 298.355 345.185 299.319L205.96 383.235C204.44 384.142 201.887 384.142 200.313 383.235L197.163 381.307C195.589 380.4 194.34 378.076 194.34 376.204V260.707Z" fill="#F2E5BD"/>
<g opacity="0.7">
<path d="M194.34 260.707C194.34 258.779 195.589 256.511 197.163 255.604L336.334 171.688C337.909 170.724 340.407 170.724 341.981 171.688L345.185 173.559C346.706 174.523 348.009 176.791 348.009 178.662V294.216C348.009 296.087 346.706 298.355 345.185 299.319L205.96 383.235C204.44 384.142 201.887 384.142 200.313 383.235L197.163 381.307C195.589 380.4 194.34 378.076 194.34 376.204V260.707Z" fill="#F2E5BD"/>
</g>
<path d="M197.163 255.604L336.334 171.688C337.909 170.724 340.461 170.724 341.981 171.688L345.185 173.559C345.945 174.069 346.651 174.863 347.14 175.77L203.136 262.578L195.154 257.758C195.643 256.851 196.349 256.057 197.163 255.604V255.604Z" fill="#F2E5BD"/>
<path opacity="0.8" d="M197.163 255.604L336.334 171.688C337.909 170.724 340.461 170.724 341.981 171.688L345.185 173.559C345.945 174.069 346.651 174.863 347.14 175.77L203.136 262.578L195.154 257.758C195.643 256.851 196.349 256.057 197.163 255.604V255.604Z" fill="#F2E5BD"/>
<path opacity="0.1" d="M195.209 257.418L203.245 262.237L204.711 263.145C203.842 263.485 203.245 264.449 203.245 265.639V381.194C203.245 382.158 203.571 382.838 204.114 383.122C204.494 383.292 204.928 383.349 205.471 383.179C205.363 383.216 205.236 383.254 205.091 383.292C204.946 383.33 204.765 383.368 204.548 383.405C203.842 383.575 203.082 383.632 202.322 383.519C201.924 383.443 201.544 383.349 201.182 383.235C200.892 383.122 200.639 383.008 200.421 382.895L197.218 380.967C195.643 380.003 194.394 377.735 194.394 375.864V260.31C194.394 259.402 194.72 258.325 195.209 257.418V257.418Z" fill="#F2E5BD"/>
<path opacity="0.1" d="M195.154 257.758L203.136 262.578L204.602 263.485C203.734 263.882 203.136 264.789 203.136 265.98V381.534C203.136 382.498 203.516 383.178 204.005 383.462C204.385 383.689 204.874 383.689 205.417 383.519C205.308 383.556 205.182 383.594 205.037 383.632C204.856 383.708 204.675 383.764 204.494 383.802C203.788 383.916 202.973 383.972 202.268 383.859C201.869 383.821 201.489 383.727 201.127 383.575C200.838 383.5 200.566 383.386 200.313 383.235L197.163 381.307C195.589 380.4 194.34 378.075 194.34 376.204V260.65C194.34 259.743 194.666 258.722 195.154 257.758V257.758Z" fill="#545959"/>
<path opacity="0.2" d="M203.136 262.578L269.98 288.66C274.758 290.531 280.134 288.716 282.903 284.237L293.654 267.057L347.14 175.77L295.772 267.737L348.009 294.273C347.954 295.237 347.629 296.258 347.086 297.221L295.609 267.964L283.12 288.83C280.297 293.593 274.487 295.464 269.545 293.196L260.64 289.113L204.005 383.462C203.516 383.179 203.136 382.498 203.136 381.534V379.607L260.369 289L203.136 262.578Z" fill="#545959"/>
<path opacity="0.1" d="M202.539 262.011L269.382 288.093C274.161 289.964 279.482 288.093 282.251 283.67L293.003 266.49L346.543 175.203L295.175 267.114L347.357 293.706C347.357 294.613 347.031 295.69 346.488 296.654L295.012 267.397L282.523 288.263C279.645 293.025 273.835 294.897 268.894 292.629L260.043 288.546L203.408 382.895C202.865 382.611 202.539 381.931 202.539 380.967V379.039L259.771 288.376L202.539 262.011Z" fill="#545959"/>
<path d="M229.635 281.969C229.635 280.098 230.884 277.83 232.458 276.866L371.629 192.95C373.204 192.043 375.702 192.043 377.276 192.95L380.48 194.878C382.001 195.842 383.304 198.11 383.304 199.981V315.535C383.304 317.406 382.001 319.674 380.48 320.638L241.255 404.554C239.735 405.462 237.182 405.462 235.608 404.554L232.458 402.627C230.884 401.663 229.635 399.395 229.635 397.524V281.969Z" fill="#F2E5BD"/>
<g opacity="0.5">
<path d="M229.635 281.402C229.635 279.531 230.884 277.263 232.458 276.299L371.629 192.383C373.204 191.476 375.702 191.476 377.276 192.383L380.48 194.311C382.001 195.275 383.304 197.543 383.304 199.414V314.968C383.304 316.84 382.001 319.108 380.48 320.071L241.255 403.987C239.735 404.895 237.182 404.895 235.608 403.987L232.458 402.06C230.884 401.096 229.635 398.828 229.635 396.957V281.402Z" fill="#F2E5BD"/>
</g>
<path d="M232.458 276.866L371.629 192.95C373.204 192.043 375.702 192.043 377.276 192.95L380.48 194.878C381.24 195.331 381.946 196.182 382.435 197.089L238.431 283.897L230.449 279.077C230.938 278.17 231.644 277.32 232.458 276.866V276.866Z" fill="#F2E5BD"/>
<path opacity="0.6" d="M232.458 276.866L371.629 192.95C373.204 192.043 375.702 192.043 377.276 192.95L380.48 194.878C381.24 195.331 381.946 196.182 382.435 197.089L238.431 283.897L230.449 279.077C230.938 278.17 231.644 277.32 232.458 276.866V276.866Z" fill="#F2E5BD"/>
<path opacity="0.1" d="M230.449 279.077L238.431 283.897L239.897 284.804C239.029 285.144 238.431 286.108 238.431 287.299V402.853C238.431 403.817 238.811 404.498 239.3 404.781C239.68 404.951 240.169 405.008 240.658 404.781C240.549 404.857 240.44 404.914 240.332 404.951C240.151 404.989 239.97 405.027 239.789 405.065C239.083 405.235 238.268 405.292 237.563 405.178C237.128 405.103 236.748 405.008 236.422 404.895C236.133 404.781 235.861 404.668 235.608 404.554L232.458 402.627C230.884 401.663 229.635 399.395 229.635 397.524V281.969C229.635 281.062 229.961 279.985 230.449 279.077V279.077Z" fill="#545959"/>
<path opacity="0.4" d="M238.431 283.897L305.275 309.979C310.053 311.85 315.429 309.979 318.198 305.556L328.949 288.376L382.435 197.089L331.067 289L383.304 315.535C383.249 316.499 382.924 317.577 382.381 318.484L330.904 289.283L318.415 310.149C315.537 314.912 309.782 316.783 304.84 314.515L295.935 310.376L239.3 404.781C238.811 404.498 238.431 403.817 238.431 402.853V400.926L295.664 310.262L238.431 283.897Z" fill="#545959"/>
<path opacity="0.1" d="M238.431 283.897L305.275 309.979C310.053 311.85 315.429 309.979 318.198 305.556L328.949 288.376L382.435 197.089L331.067 289L383.304 315.535C383.249 316.499 382.924 317.577 382.381 318.484L330.904 289.283L318.415 310.149C315.537 314.912 309.782 316.783 304.84 314.515L295.935 310.376L239.3 404.781C238.811 404.498 238.431 403.817 238.431 402.853V400.926L295.664 310.262L238.431 283.897Z" fill="#545959"/>
<path d="M265.201 304.196L410.074 216.878L415.829 220.393C417.35 221.3 418.599 223.512 418.599 225.269V336.855C418.599 338.669 417.35 340.881 415.829 341.788L276.441 425.817C274.975 426.724 272.477 426.724 271.011 425.817L267.916 424.003C266.45 423.096 265.201 420.884 265.201 419.07V304.196Z" fill="#E05E41"/>
<path opacity="0.2" d="M271.5 303.742L410.399 219.996L415.938 223.341C417.404 224.192 418.599 226.347 418.599 228.048V335.097C418.599 336.798 417.404 338.953 415.938 339.803L282.306 420.374C280.84 421.224 278.505 421.224 277.039 420.374L274.106 418.616C272.695 417.766 271.5 415.611 271.5 413.91V303.742Z" fill="black"/>
<path d="M409.856 210.357V217.558L267.21 306.237L264.984 304.933C264.984 304.933 264.984 300.794 264.984 297.675C264.984 295.804 265.799 293.026 266.83 291.495L338.126 182.744C339.158 181.213 341.33 180.476 343.013 181.1L406.761 205.764C406.978 205.84 407.178 205.953 407.359 206.105V206.048L409.639 207.465L409.042 207.749C409.531 208.599 409.856 209.507 409.856 210.357V210.357Z" fill="#D9644A"/>
<path opacity="0.1" d="M341.33 182.574C341.004 182.801 340.787 183.084 340.57 183.368L269.274 292.119C268.731 292.912 268.242 294.046 267.916 295.237L265.69 293.876C265.871 293.309 266.07 292.761 266.287 292.232C266.287 292.194 266.287 292.175 266.287 292.175C266.396 291.948 266.504 291.741 266.613 291.552C266.613 291.514 266.631 291.476 266.667 291.438C266.776 291.174 266.903 290.947 267.047 290.758L338.343 182.007C338.452 181.837 338.56 181.724 338.723 181.554C338.832 181.44 338.959 181.327 339.103 181.213L341.33 182.574Z" fill="black"/>
<path opacity="0.3" d="M409.802 206.728C409.621 206.615 409.422 206.501 409.205 206.388L345.457 181.724C344.099 181.213 342.416 181.553 341.33 182.574L339.104 181.213C340.244 180.249 341.873 179.852 343.23 180.419L406.979 205.084C407.196 205.16 407.395 205.254 407.576 205.367L409.802 206.728Z" fill="white"/>
<path d="M266.667 291.438C266.776 291.211 266.903 290.985 267.047 290.758C266.903 290.985 266.776 291.211 266.667 291.438Z" fill="#27DEBF"/>
<path d="M338.723 181.554C338.832 181.441 338.959 181.327 339.103 181.213C338.959 181.327 338.832 181.441 338.723 181.554Z" fill="#27DEBF"/>
<path d="M265.69 293.876C265.871 293.309 266.07 292.761 266.287 292.232C266.07 292.761 265.871 293.309 265.69 293.876Z" fill="#27DEBF"/>
<path d="M266.287 292.175C266.396 291.948 266.504 291.741 266.613 291.552C266.504 291.741 266.396 291.948 266.287 292.175Z" fill="#27DEBF"/>
<path opacity="0.2" d="M266.613 291.552C266.613 291.514 266.631 291.476 266.667 291.438C266.631 291.476 266.613 291.514 266.613 291.552Z" fill="black"/>
<path opacity="0.2" d="M338.343 182.008C338.452 181.856 338.579 181.705 338.723 181.553C338.579 181.705 338.452 181.856 338.343 182.008Z" fill="black"/>
<path d="M345.457 181.724L409.205 206.388C410.888 207.069 412.246 209.11 412.246 210.981V218.182L267.427 305.557C267.427 305.557 267.427 301.417 267.427 298.299C267.427 296.428 268.242 293.65 269.274 292.119L340.57 183.368C341.601 181.837 343.773 181.1 345.457 181.724V181.724Z" fill="#E05E41"/>
<path opacity="0.1" d="M412.246 218.182L267.427 305.556C267.427 305.556 267.427 301.417 267.427 298.299C267.427 297.448 267.59 296.314 267.916 295.237L411.485 208.429C411.974 209.223 412.246 210.13 412.246 210.981V218.182Z" fill="black"/>
<path d="M406.055 328.917C406.055 330.504 405.024 332.375 403.721 333.169L284.912 404.781C284.261 405.178 283.663 405.235 283.229 404.951C282.849 404.725 279.265 402.57 278.831 402.287C278.396 402.06 278.179 401.493 278.179 400.699L278.125 252.145C278.125 250.557 279.211 248.686 280.514 247.892L399.322 176.28C399.974 175.883 400.571 175.827 400.951 176.11C401.386 176.337 404.969 178.492 405.404 178.775C405.838 179.002 406.055 179.569 406.055 180.363V328.917Z" fill="#F0F0F0"/>
<path d="M282.577 403.364V254.81C282.577 253.222 283.609 251.351 284.912 250.557L403.721 178.945C405.024 178.151 406.055 178.775 406.055 180.363V328.917C406.055 330.504 405.024 332.375 403.721 333.169L284.912 404.781C283.609 405.575 282.577 404.951 282.577 403.364V403.364Z" fill="#FAFAFA"/>
<path fill-rule="evenodd" clip-rule="evenodd" d="M361.041 264.165C360.932 265.942 360.642 267.586 360.172 269.098C359.701 270.648 359.122 272.047 358.434 273.294C357.783 274.504 357.041 275.562 356.208 276.469C355.375 277.339 354.543 278 353.71 278.454C352.226 279.248 351.086 279.531 350.289 279.304C349.493 279.077 348.914 278.681 348.552 278.114C348.298 278.718 348.027 279.323 347.737 279.928C347.448 280.495 347.086 281.081 346.651 281.686C346.217 282.253 345.692 282.82 345.077 283.387C344.425 283.954 343.647 284.483 342.742 284.974C341.619 285.579 340.624 285.787 339.755 285.598C338.886 285.409 338.162 284.88 337.583 284.01C337.004 283.103 336.569 281.894 336.28 280.382C335.99 278.87 335.882 277.074 335.954 274.995C336.063 272.878 336.298 270.894 336.66 269.042C337.058 267.152 337.583 265.432 338.235 263.882C338.886 262.332 339.665 260.99 340.57 259.856C341.475 258.722 342.47 257.853 343.556 257.248C344.787 256.605 345.692 256.398 346.271 256.624C346.85 256.889 347.303 257.342 347.629 257.985L347.683 257.361C347.683 256.87 347.81 256.379 348.063 255.887C348.316 255.396 348.606 255.075 348.932 254.923L351.267 253.676C351.593 253.487 351.864 253.506 352.081 253.733C352.298 253.997 352.407 254.375 352.407 254.867L351.864 269.382C351.828 270.478 352.027 271.196 352.461 271.536C352.896 271.877 353.403 271.877 353.982 271.536C354.597 271.234 355.122 270.667 355.556 269.835C356.027 268.966 356.317 267.794 356.425 266.32C356.534 265.073 356.606 263.768 356.642 262.408C356.715 261.085 356.733 259.856 356.697 258.722C356.588 256.303 356.298 254.3 355.828 252.712C355.321 251.087 354.597 249.934 353.656 249.253C352.715 248.535 351.502 248.252 350.018 248.403C348.534 248.554 346.76 249.178 344.696 250.274C342.959 251.219 341.402 252.428 340.027 253.903C338.615 255.377 337.402 257.059 336.389 258.949C335.339 260.801 334.488 262.805 333.836 264.959C333.149 267.152 332.678 269.382 332.425 271.65C332.352 272.292 332.28 273.105 332.207 274.088C332.171 275.071 332.135 276.091 332.099 277.15C332.063 278.208 332.026 279.248 331.99 280.268C331.954 281.251 331.954 282.045 331.99 282.65C332.099 284.729 332.425 286.505 332.968 287.979C333.474 289.491 334.198 290.663 335.14 291.495C336.045 292.289 337.185 292.704 338.561 292.742C339.9 292.742 341.42 292.289 343.122 291.381C344.353 290.701 345.42 290.039 346.325 289.397C347.23 288.754 348.027 288.093 348.715 287.412C349.366 286.732 349.945 286.07 350.452 285.428C350.923 284.785 351.375 284.162 351.81 283.557C352.136 283.028 352.407 282.631 352.624 282.366C352.805 282.101 353.059 281.875 353.384 281.686L356.697 279.928C357.023 279.739 357.312 279.758 357.566 279.985C357.783 280.174 357.873 280.571 357.837 281.175C357.801 281.553 357.674 281.95 357.457 282.366C356.805 283.651 356.063 285.012 355.231 286.449C354.398 287.847 353.421 289.227 352.298 290.588C351.176 291.948 349.837 293.29 348.28 294.613C346.76 295.936 344.95 297.146 342.85 298.242C340.28 299.641 338.036 300.283 336.117 300.17C334.198 300.057 332.587 299.376 331.284 298.129C330.017 296.881 329.058 295.161 328.406 292.969C327.719 290.739 327.339 288.244 327.266 285.485C327.266 284.88 327.284 284.048 327.32 282.99C327.32 281.931 327.339 280.816 327.375 279.645C327.447 278.511 327.501 277.414 327.538 276.356C327.61 275.297 327.664 274.466 327.701 273.861C327.954 270.95 328.515 268.002 329.384 265.016C330.253 261.992 331.411 259.119 332.859 256.398C334.307 253.638 336.045 251.143 338.072 248.913C340.063 246.645 342.361 244.812 344.968 243.413C348.009 241.788 350.561 240.975 352.624 240.975C354.688 241.013 356.371 241.637 357.674 242.846C358.941 244.094 359.864 245.851 360.443 248.119C360.986 250.387 361.294 252.977 361.367 255.887C361.403 257.021 361.385 258.382 361.312 259.97C361.24 261.519 361.149 262.918 361.041 264.165V264.165ZM340.678 272.5C340.57 274.693 340.787 276.261 341.33 277.206C341.837 278.114 342.615 278.303 343.665 277.773C344.751 277.169 345.601 276.11 346.217 274.598C346.796 273.124 347.14 271.253 347.249 268.985C347.321 266.755 347.104 265.167 346.597 264.222C346.09 263.239 345.294 263.05 344.208 263.655C343.158 264.222 342.325 265.28 341.71 266.83C341.094 268.38 340.751 270.27 340.678 272.5V272.5Z" fill="#070A40"/>
<path d="M282.577 403.364C282.577 404.101 282.74 404.611 283.12 404.895C282.306 404.441 279.211 402.57 278.831 402.343C278.396 402.06 278.125 401.493 278.125 400.756V252.145C278.125 251.351 278.396 250.501 278.831 249.707L283.229 252.372C282.794 253.165 282.577 254.016 282.577 254.81V403.364Z" fill="#E0E0E0"/>
<path d="M414.906 338.386C414.87 338.461 414.816 338.537 414.743 338.612L354.362 318.597C349.638 316.386 344.099 318.2 341.33 322.793L276.821 422.925L274.432 424.4H274.378C273.672 424.796 273.02 424.853 272.532 424.626L338.941 321.376C341.656 316.783 347.248 314.969 351.973 317.18L414.906 338.386Z" fill="#A64141"/>
<path opacity="0.4" d="M335.411 332.602L335.574 332.489L276.821 422.925L274.432 424.4H274.378C273.672 424.797 273.02 424.853 272.532 424.626L333.076 331.185L335.411 332.602Z" fill="white"/>
<path opacity="0.4" d="M414.906 338.386C414.87 338.461 414.816 338.537 414.743 338.612L354.362 318.597C349.638 316.386 344.099 318.2 341.33 322.793L338.941 321.319C341.71 316.783 347.248 314.968 351.973 317.18L414.906 338.386Z" fill="white"/>
<path d="M418.544 224.589H418.49C418.381 223.795 417.947 223.568 417.458 223.909C417.241 224.06 417.006 224.324 416.752 224.702L416.427 225.099L356.86 319.675L347.954 332.602C346.977 334.077 344.805 334.927 343.067 334.53L335.411 332.602L276.767 310.093C276.369 309.979 275.971 309.96 275.572 310.036C275.428 310.074 275.283 310.13 275.138 310.206L277.364 308.845L333.565 330.391L340.95 333.113C342.633 333.566 344.859 332.716 345.837 331.185L354.742 318.257L414.58 223.285C414.798 223.001 415.015 222.775 415.286 222.661L410.074 219.543L412.246 218.239L415.829 220.393C417.133 221.187 418.273 222.945 418.544 224.589V224.589Z" fill="#D9644A"/>
<path opacity="0.4" d="M356.86 319.675L347.954 332.602C346.977 334.076 344.805 334.927 343.067 334.53L335.411 332.602L335.574 332.489L335.9 331.865L340.95 333.113C342.633 333.566 344.859 332.716 345.837 331.185L354.633 318.427L356.86 319.675Z" fill="white"/>
<path opacity="0.1" d="M418.544 224.589H418.49C418.381 223.738 417.947 223.511 417.458 223.908C417.241 224.06 417.006 224.305 416.752 224.645L416.427 225.099L356.86 319.675L354.633 318.427L354.742 318.257L414.58 223.285C414.798 223.02 415.033 222.812 415.286 222.661C415.286 222.661 415.286 222.642 415.286 222.604L410.074 219.486L412.246 218.182L415.829 220.336C417.133 221.13 418.273 222.944 418.544 224.589Z" fill="black"/>
<path d="M277.962 424.91L276.441 425.817C274.975 426.724 272.477 426.724 271.011 425.817L267.916 424.003C266.45 423.095 265.201 420.884 265.201 419.07V304.196L277.962 311.907V424.91Z" fill="#A64141"/>
<path opacity="0.1" d="M277.962 424.91L276.441 425.817C274.975 426.724 272.477 426.724 271.011 425.817L267.916 424.003C266.45 423.095 265.201 420.884 265.201 419.07V304.196L277.962 311.907V424.91Z" fill="#D9644A"/>
<path d="M418.599 225.326V336.855C418.599 337.819 418.273 338.839 417.73 339.746C417.295 340.484 416.752 341.164 416.155 341.617L416.047 341.674C415.938 341.731 415.938 341.788 415.829 341.788L276.441 425.817V425.874C275.681 426.271 275.029 426.327 274.595 426.101C274.161 425.874 273.835 425.363 273.781 424.74C273.744 424.551 273.726 424.381 273.726 424.229V312.644C273.726 310.829 275.084 309.695 276.767 310.092L335.411 332.602L343.067 334.53C344.805 334.927 346.977 334.076 347.954 332.602L356.86 319.675L416.427 225.099L416.752 224.702C417.73 223.228 418.599 223.511 418.599 225.326V225.326Z" fill="#D9644A"/>
<path d="M398.182 352.447L356.86 319.675L418.599 336.911C418.544 337.819 418.273 338.839 417.73 339.746C417.295 340.483 416.752 341.164 416.155 341.617L416.047 341.674C415.974 341.712 415.902 341.75 415.829 341.788L398.182 352.447Z" fill="#A64141"/>
<path opacity="0.2" d="M398.182 352.447L356.86 319.675L418.599 336.911C418.544 337.819 418.273 338.839 417.73 339.746C417.295 340.483 416.752 341.164 416.155 341.617L416.047 341.674C415.974 341.712 415.902 341.75 415.829 341.788L398.182 352.447Z" fill="#A64141"/>
<path d="M273.726 422.358L335.411 332.602L324.442 396.9L276.441 425.817V425.874C275.735 426.271 275.084 426.327 274.595 426.044C274.052 425.76 273.726 425.137 273.726 424.173V422.358Z" fill="#A64141"/>
<path opacity="0.1" d="M341.33 322.793L274.595 426.044C274.052 425.76 273.726 425.137 273.726 424.173V422.358L338.941 321.376C338.941 321.376 338.941 321.357 338.941 321.319L341.33 322.793Z" fill="#A64141"/>
<path d="M417.73 339.746C417.295 340.484 416.752 341.164 416.155 341.618L416.047 341.674L276.441 425.817V425.874C275.735 426.271 275.084 426.327 274.595 426.044L341.33 322.793C344.099 318.144 349.692 316.386 354.47 318.541L417.73 339.746Z" fill="#D9644A"/>
<path opacity="0.1" d="M265.69 293.876L267.916 295.237C267.59 296.314 267.427 297.392 267.427 298.299C267.427 301.417 267.427 305.556 267.427 305.556L265.201 304.196C265.201 304.196 265.201 300.057 265.201 296.995C265.201 296.088 265.418 294.954 265.69 293.876V293.876Z" fill="#A64141"/>
<path d="M277.364 308.845L275.138 310.206L272.912 308.845L267.427 305.556L269.545 304.196L277.364 308.845Z" fill="#AE4642"/>
<path opacity="0.1" d="M326.669 328.917L326.071 329.881L286.975 314.799L283.555 313.494C283.229 313.419 282.921 313.419 282.631 313.494C282.523 313.494 282.414 313.532 282.306 313.608L280.622 312.587L276.387 310.036L278.016 309.015L284.098 312.587L326.669 328.917Z" fill="#D9644A"/>
<path d="M161.217 117.993C161.217 120.487 159.533 123.436 157.524 124.683L112.673 151.729C110.609 152.977 108.98 151.956 108.98 149.518C108.98 147.023 110.609 144.018 112.673 142.771L119.514 138.631C118.971 137.497 118.7 136.023 118.7 134.322V130.58C118.7 123.889 123.152 115.781 128.691 112.436C133.795 109.374 138.031 111.472 138.628 117.085C139.714 115.384 141.126 113.967 142.592 113.06C146.284 110.848 149.271 112.663 149.271 117.085V119.58C149.271 119.958 149.253 120.336 149.216 120.714L157.524 115.725C159.533 114.534 161.217 115.498 161.217 117.993V117.993Z" fill="#F0F0F0"/>
<path d="M122.012 90.0395C122.012 93.0446 119.949 96.7868 117.451 98.261L62.2278 131.544C59.73 133.075 57.6666 131.827 57.6666 128.822C57.6666 125.761 59.73 122.075 62.2278 120.544L70.6986 115.441C70.047 114.024 69.6669 112.209 69.6669 110.111V105.519C69.6669 97.2971 75.2055 87.3179 81.993 83.2355C88.2918 79.4366 93.4503 81.9881 94.2105 88.9055C95.568 86.8076 97.2513 85.0499 99.0975 83.9726C103.659 81.1943 107.351 83.4623 107.351 88.9055V92.024C107.351 92.4776 107.315 92.9312 107.243 93.3848L117.451 87.2612C119.949 85.7303 122.012 86.9777 122.012 90.0395Z" fill="#F0F0F0"/>
<path d="M439.776 186.77L478.22 161.085L495.107 166.755L439.776 186.77Z" fill="#25193D"/>
<path d="M465.677 149.688L473.062 158.59L439.83 187.507L465.677 149.688Z" fill="#25193D"/>
<path d="M473.007 157.853V164.6L439.776 186.77L473.007 157.853Z" fill="#40243F"/>
<path opacity="0.3" d="M473.007 157.853V164.6L439.776 186.77L473.007 157.853Z" fill="#40243F"/>
<path d="M478.546 157.343C478.329 157.343 478.112 157.229 477.949 157.059C477.623 156.719 477.623 156.152 477.949 155.868C479.089 154.734 480.175 153.544 481.098 152.296C481.37 151.899 481.913 151.843 482.238 152.126C482.618 152.41 482.673 152.92 482.401 153.317C481.424 154.678 480.284 155.925 479.089 157.116C478.926 157.229 478.709 157.343 478.546 157.343V157.343ZM484.628 148.838C484.519 148.838 484.392 148.819 484.247 148.781C483.867 148.554 483.704 148.044 483.922 147.647C484.845 145.662 485.551 143.564 486.039 141.41C486.148 140.956 486.582 140.673 487.017 140.786C487.505 140.9 487.777 141.353 487.668 141.807C487.125 144.075 486.365 146.286 485.388 148.384C485.225 148.668 484.953 148.838 484.628 148.838V148.838ZM487.614 136.874C487.578 136.874 487.56 136.874 487.56 136.874C487.125 136.817 486.745 136.42 486.8 135.967C486.8 135.513 486.8 135.059 486.8 134.606C486.8 132.848 486.691 131.09 486.419 129.389C486.311 128.936 486.637 128.482 487.071 128.369C487.505 128.312 487.94 128.652 487.994 129.106C488.32 130.92 488.429 132.791 488.429 134.606C488.429 135.097 488.429 135.57 488.429 136.023C488.374 136.534 488.048 136.874 487.614 136.874ZM485.876 124.627C485.496 124.627 485.171 124.4 485.062 124.003C484.41 121.962 483.487 119.921 482.456 117.993C482.238 117.596 482.347 117.086 482.781 116.802C483.161 116.575 483.65 116.745 483.867 117.142C484.953 119.184 485.931 121.338 486.637 123.493C486.745 123.89 486.528 124.4 486.094 124.57C486.021 124.608 485.949 124.627 485.876 124.627V124.627ZM480.121 113.684C479.903 113.684 479.686 113.57 479.523 113.4C478.22 111.642 476.808 109.998 475.234 108.41C474.908 108.127 474.854 107.56 475.179 107.22C475.505 106.88 475.994 106.88 476.32 107.22C477.949 108.807 479.469 110.565 480.772 112.323C481.044 112.72 480.989 113.23 480.664 113.513C480.483 113.627 480.302 113.684 480.121 113.684ZM471.65 105.008C471.469 105.008 471.306 104.952 471.161 104.838C469.478 103.534 467.686 102.287 465.785 101.153C465.405 100.926 465.297 100.359 465.514 99.9622C465.731 99.5653 466.22 99.4519 466.6 99.6787C468.555 100.813 470.401 102.117 472.139 103.478C472.464 103.761 472.573 104.271 472.301 104.668C472.139 104.895 471.867 105.008 471.65 105.008V105.008ZM386.29 101.72C386.019 101.72 385.747 101.55 385.584 101.266C385.367 100.869 385.476 100.359 385.856 100.132C387.756 98.9983 389.711 97.921 391.72 96.9571C392.1 96.7303 392.589 96.9004 392.806 97.354C392.969 97.7509 392.806 98.2612 392.426 98.488C390.471 99.4519 388.517 100.472 386.67 101.606C386.562 101.682 386.435 101.72 386.29 101.72V101.72ZM461.387 98.6014C461.279 98.6014 461.17 98.5825 461.061 98.5447C459.107 97.5241 457.152 96.6736 455.143 95.8231C454.708 95.653 454.491 95.1994 454.654 94.7458C454.817 94.2922 455.306 94.0654 455.74 94.2355C457.749 95.086 459.812 95.9932 461.767 97.0138C462.147 97.1839 462.365 97.6942 462.147 98.1478C461.984 98.4313 461.713 98.6014 461.387 98.6014V98.6014ZM397.042 96.3334C396.716 96.3334 396.39 96.1066 396.281 95.7664C396.119 95.3128 396.336 94.8592 396.77 94.6891C398.779 93.8386 400.897 93.1015 402.96 92.4211C403.395 92.3077 403.829 92.5345 403.992 92.9881C404.101 93.4417 403.883 93.952 403.449 94.0654C401.386 94.6891 399.322 95.4262 397.367 96.2767C397.259 96.3145 397.15 96.3334 397.042 96.3334V96.3334ZM450.31 94.0654C450.238 94.0654 450.147 94.0465 450.038 94.0087C448.029 93.385 445.912 92.818 443.848 92.3077C443.36 92.251 443.088 91.7974 443.197 91.3438C443.305 90.8335 443.74 90.55 444.174 90.6634C446.292 91.1737 448.464 91.7407 450.527 92.4211C450.962 92.5345 451.233 92.9881 451.07 93.4417C450.962 93.8386 450.636 94.0654 450.31 94.0654V94.0654ZM408.445 92.6479C408.065 92.6479 407.739 92.3644 407.63 91.9675C407.576 91.5139 407.847 91.0603 408.282 90.9469C410.399 90.4366 412.571 90.0397 414.743 89.6995C415.178 89.5861 415.612 89.9263 415.667 90.3799C415.721 90.8902 415.395 91.2871 414.961 91.3438C412.843 91.684 410.725 92.1376 408.608 92.6479C408.571 92.6479 408.517 92.6479 408.445 92.6479V92.6479ZM438.635 91.3438C438.599 91.3438 438.563 91.3438 438.527 91.3438C436.409 91.0036 434.237 90.7768 432.119 90.6067C431.685 90.6067 431.359 90.2098 431.359 89.6995C431.414 89.2459 431.794 88.9057 432.228 88.9057C434.4 89.0758 436.626 89.3026 438.798 89.6428C439.233 89.6995 439.504 90.1531 439.45 90.6067C439.396 91.0036 439.07 91.3438 438.635 91.3438V91.3438ZM420.228 90.7201C419.848 90.7201 419.468 90.3799 419.413 89.9263C419.413 89.4727 419.739 89.0758 420.173 89.0191C422.345 88.849 424.572 88.7356 426.744 88.7356C427.178 88.7356 427.558 89.1325 427.558 89.5861C427.558 90.0397 427.178 90.4366 426.744 90.4366C424.626 90.4366 422.454 90.55 420.282 90.7201C420.282 90.7201 420.264 90.7201 420.228 90.7201Z" fill="#E0E0E0"/>
</svg>
