<svg width="186" height="25" viewBox="0 0 186 25" fill="none" xmlns="http://www.w3.org/2000/svg">
<path d="M9.64 6.81L1.21 11.76L9.64 16.74V17.73L0.25 12.18V11.31L9.64 5.82V6.81ZM101.725 24.6C99.6252 24.6 97.6752 24.05 95.8752 22.95C94.0752 21.85 92.6452 20.39 91.5852 18.57C90.5452 16.73 90.0252 14.76 90.0252 12.66C90.0252 10.58 90.5552 8.64 91.6152 6.84C92.6752 5.02 94.1052 3.58 95.9052 2.52C97.7052 1.44 99.6552 0.899999 101.755 0.899999C103.875 0.899999 105.825 1.43 107.605 2.49C109.385 3.55 110.795 4.99 111.835 6.81C112.895 8.61 113.425 10.56 113.425 12.66C113.425 14.82 112.895 16.82 111.835 18.66C110.795 20.48 109.375 21.93 107.575 23.01C105.795 24.07 103.845 24.6 101.725 24.6ZM101.725 23.73C103.645 23.73 105.425 23.24 107.065 22.26C108.705 21.26 110.005 19.92 110.965 18.24C111.945 16.54 112.435 14.7 112.435 12.72C112.435 10.76 111.955 8.94 110.995 7.26C110.035 5.58 108.735 4.25 107.095 3.27C105.455 2.27 103.675 1.77 101.755 1.77C99.8152 1.77 98.0252 2.27 96.3852 3.27C94.7452 4.25 93.4352 5.58 92.4552 7.26C91.4952 8.94 91.0152 10.76 91.0152 12.72C91.0152 14.7 91.4952 16.54 92.4552 18.24C93.4352 19.92 94.7452 21.26 96.3852 22.26C98.0252 23.24 99.8052 23.73 101.725 23.73ZM121.856 24.27C120.916 24.27 120.056 24.06 119.276 23.64C118.496 23.2 117.876 22.59 117.416 21.81C116.956 21.03 116.726 20.16 116.726 19.2V1.5H117.686V19.2C117.686 20 117.866 20.72 118.226 21.36C118.606 22 119.116 22.51 119.756 22.89C120.396 23.25 121.096 23.43 121.856 23.43V24.27ZM126.128 7.41C125.848 7.41 125.598 7.31 125.378 7.11C125.178 6.91 125.078 6.66 125.078 6.36C125.078 6.08 125.178 5.84 125.378 5.64C125.598 5.44 125.848 5.34 126.128 5.34C126.408 5.34 126.648 5.44 126.848 5.64C127.068 5.84 127.178 6.08 127.178 6.36C127.178 6.66 127.068 6.91 126.848 7.11C126.648 7.31 126.408 7.41 126.128 7.41ZM125.648 10.5H126.608V24H125.648V10.5ZM142.631 10.5L136.001 24.39L129.341 10.5H130.391L136.001 22.2L141.581 10.5H142.631ZM150.659 23.52C151.699 23.52 152.689 23.25 153.629 22.71C154.569 22.17 155.349 21.43 155.969 20.49V22.02C155.229 22.84 154.419 23.44 153.539 23.82C152.659 24.18 151.659 24.36 150.539 24.36C149.299 24.36 148.129 24.03 147.029 23.37C145.949 22.71 145.079 21.83 144.419 20.73C143.779 19.63 143.459 18.46 143.459 17.22C143.459 15.88 143.779 14.68 144.419 13.62C145.059 12.54 145.929 11.7 147.029 11.1C148.149 10.5 149.389 10.2 150.749 10.2C152.829 10.2 154.599 11.02 156.059 12.66L146.639 21.96C147.299 22.5 147.939 22.9 148.559 23.16C149.179 23.4 149.879 23.52 150.659 23.52ZM144.419 17.13C144.419 18.79 144.969 20.21 146.069 21.39L154.859 12.66C154.199 12.08 153.559 11.67 152.939 11.43C152.319 11.17 151.579 11.04 150.719 11.04C149.499 11.04 148.409 11.31 147.449 11.85C146.509 12.37 145.769 13.09 145.229 14.01C144.689 14.93 144.419 15.97 144.419 17.13ZM159.06 10.5H160.02V13.62C160.42 12.64 161 11.87 161.76 11.31C162.54 10.75 163.42 10.47 164.4 10.47C165.02 10.47 165.65 10.6 166.29 10.86V11.97C165.71 11.53 165.06 11.31 164.34 11.31C163.62 11.31 162.92 11.53 162.24 11.97C161.58 12.41 161.04 13 160.62 13.74C160.22 14.48 160.02 15.27 160.02 16.11V24H159.06V10.5ZM185.011 11.31V12.18L175.621 17.73V16.74L184.051 11.76L175.621 6.81V5.82L185.011 11.31Z" fill="#F2E5BD"/>
<path d="M19.2079 1.5H20.1979V23.13H27.1579V24H19.2079V1.5ZM36.2549 23.52C37.2949 23.52 38.2849 23.25 39.2249 22.71C40.1649 22.17 40.9449 21.43 41.5649 20.49V22.02C40.8249 22.84 40.0149 23.44 39.1349 23.82C38.2549 24.18 37.2549 24.36 36.1349 24.36C34.8949 24.36 33.7249 24.03 32.6249 23.37C31.5449 22.71 30.6749 21.83 30.0149 20.73C29.3749 19.63 29.0549 18.46 29.0549 17.22C29.0549 15.88 29.3749 14.68 30.0149 13.62C30.6549 12.54 31.5249 11.7 32.6249 11.1C33.7449 10.5 34.9849 10.2 36.3449 10.2C38.4249 10.2 40.1949 11.02 41.6549 12.66L32.2349 21.96C32.8949 22.5 33.5349 22.9 34.1549 23.16C34.7749 23.4 35.4749 23.52 36.2549 23.52ZM30.0149 17.13C30.0149 18.79 30.5649 20.21 31.6649 21.39L40.4549 12.66C39.7949 12.08 39.1549 11.67 38.5349 11.43C37.9149 11.17 37.1749 11.04 36.3149 11.04C35.0949 11.04 34.0049 11.31 33.0449 11.85C32.1049 12.37 31.3649 13.09 30.8249 14.01C30.2849 14.93 30.0149 15.97 30.0149 17.13ZM38.9549 4.68H40.1849L36.0149 8.13H34.7549L38.9549 4.68ZM45.8256 7.41C45.5456 7.41 45.2956 7.31 45.0756 7.11C44.8756 6.91 44.7756 6.66 44.7756 6.36C44.7756 6.08 44.8756 5.84 45.0756 5.64C45.2956 5.44 45.5456 5.34 45.8256 5.34C46.1056 5.34 46.3456 5.44 46.5456 5.64C46.7656 5.84 46.8756 6.08 46.8756 6.36C46.8756 6.66 46.7656 6.91 46.5456 7.11C46.3456 7.31 46.1056 7.41 45.8256 7.41ZM45.3456 10.5H46.3056V24H45.3456V10.5ZM57.1387 24.33C55.8587 24.33 54.6687 24.01 53.5687 23.37C52.4687 22.73 51.5987 21.87 50.9587 20.79C50.3187 19.69 49.9987 18.51 49.9987 17.25C49.9987 15.99 50.3187 14.82 50.9587 13.74C51.5987 12.64 52.4687 11.77 53.5687 11.13C54.6687 10.49 55.8587 10.17 57.1387 10.17C58.4387 10.17 59.6687 10.52 60.8287 11.22C61.9887 11.9 62.7987 12.79 63.2587 13.89V10.5H64.2187V24H63.2587V20.64C62.7187 21.76 61.8787 22.66 60.7387 23.34C59.6187 24 58.4187 24.33 57.1387 24.33ZM57.1987 23.49C58.2987 23.49 59.3187 23.21 60.2587 22.65C61.1987 22.07 61.9387 21.31 62.4787 20.37C63.0387 19.41 63.3187 18.37 63.3187 17.25C63.3187 16.15 63.0387 15.12 62.4787 14.16C61.9187 13.2 61.1687 12.44 60.2287 11.88C59.2887 11.3 58.2687 11.01 57.1687 11.01C56.0687 11.01 55.0387 11.3 54.0787 11.88C53.1387 12.46 52.3787 13.23 51.7987 14.19C51.2387 15.15 50.9587 16.18 50.9587 17.28C50.9587 18.38 51.2387 19.41 51.7987 20.37C52.3787 21.31 53.1487 22.07 54.1087 22.65C55.0687 23.21 56.0987 23.49 57.1987 23.49ZM68.0052 1.5H68.9652V13.29C69.3852 12.39 70.0952 11.65 71.0952 11.07C72.1152 10.47 73.1452 10.17 74.1852 10.17C76.0852 10.17 77.5452 10.69 78.5652 11.73C79.6052 12.77 80.1252 14.24 80.1252 16.14V24H79.1652V16.14C79.1652 14.5 78.7252 13.24 77.8452 12.36C76.9852 11.46 75.7652 11.01 74.1852 11.01C73.2252 11.01 72.3452 11.24 71.5452 11.7C70.7452 12.14 70.1152 12.76 69.6552 13.56C69.1952 14.34 68.9652 15.2 68.9652 16.14V24H68.0052V1.5Z" fill="#D9644A"/>
</svg>
