<svg width="32" height="32" viewBox="0 0 32 32" fill="none" xmlns="http://www.w3.org/2000/svg">
<path d="M32 15.7959C32 24.4088 24.8387 31.3871 16 31.3871C7.16129 31.3871 0 24.4088 0 15.7959C0 7.18303 7.16129 0.204712 16 0.204712C24.8387 0.204712 32 7.18303 32 15.7959ZM13.1613 8.50325V15.7959H8.5871C7.89677 15.7959 7.54839 16.6132 8.03871 17.0847L15.4516 24.2705C15.7548 24.5659 16.2387 24.5659 16.5419 24.2705L23.9548 17.0847C24.4452 16.6069 24.0968 15.7959 23.4065 15.7959H18.8387V8.50325C18.8387 8.08832 18.4903 7.74883 18.0645 7.74883H13.9355C13.5097 7.74883 13.1613 8.08832 13.1613 8.50325Z" fill="#F2E5BD"/>
</svg>
